<?xml version="1.0" encoding="UTF-8" standalone="no"?>
<!-- Created with Inkscape (http://www.inkscape.org/) -->

<svg
   width="215.94507mm"
   height="215.94514mm"
   viewBox="0 0 215.94507 215.94514"
   version="1.1"
   id="svg5"
   xml:space="preserve"
   sodipodi:docname="automatic-save-0-2023_01_30_18_41_20-6696-1.svg"
   inkscape:version="1.2.2 (732a01da63, 2022-12-09)"
   xmlns:inkscape="http://www.inkscape.org/namespaces/inkscape"
   xmlns:sodipodi="http://sodipodi.sourceforge.net/DTD/sodipodi-0.dtd"
   xmlns="http://www.w3.org/2000/svg"
   xmlns:svg="http://www.w3.org/2000/svg"><sodipodi:namedview
     id="namedview7"
     pagecolor="#505050"
     bordercolor="#eeeeee"
     borderopacity="1"
     inkscape:showpageshadow="0"
     inkscape:pageopacity="0"
     inkscape:pagecheckerboard="0"
     inkscape:deskcolor="#505050"
     inkscape:document-units="mm"
     showgrid="false"
     inkscape:zoom="0.37549453"
     inkscape:cx="-6539.3762"
     inkscape:cy="-296.94174"
     inkscape:window-width="2400"
     inkscape:window-height="1421"
     inkscape:window-x="-9"
     inkscape:window-y="-9"
     inkscape:window-maximized="1"
     inkscape:current-layer="svg5"
     showguides="true"><sodipodi:guide
       position="695.63071,107.97257"
       orientation="0,-1"
       id="guide188"
       inkscape:locked="false" /><sodipodi:guide
       position="695.63071,107.97257"
       orientation="1,0"
       id="guide1758"
       inkscape:locked="false" /><sodipodi:guide
       position="620.22592,-44.756561"
       orientation="0,-1"
       id="guide1760"
       inkscape:locked="false" /><sodipodi:guide
       position="620.22592,-44.756561"
       orientation="1,0"
       id="guide4502"
       inkscape:locked="false" /><sodipodi:guide
       position="604.95062,-38.135352"
       orientation="1,0"
       id="guide4504"
       inkscape:locked="false" /><sodipodi:guide
       position="635.51152,-38.134962"
       orientation="1,0"
       id="guide4506"
       inkscape:locked="false" /><sodipodi:guide
       position="609.28042,-33.805602"
       orientation="0,-1"
       id="guide4508"
       inkscape:locked="false" /><sodipodi:guide
       position="604.95062,-38.135352"
       orientation="0,-1"
       id="guide4512"
       inkscape:locked="false" /><sodipodi:guide
       position="604.93932,-51.378181"
       orientation="0,-1"
       id="guide4516"
       inkscape:locked="false" /><sodipodi:guide
       position="331.74113,210.93793"
       orientation="1,0"
       id="guide5008"
       inkscape:locked="false" /><sodipodi:guide
       position="307.24943,194.90113"
       orientation="0,-1"
       id="guide5091"
       inkscape:locked="false" /><sodipodi:guide
       position="304.09963,201.31418"
       orientation="0.79140873,-0.61128734"
       id="guide5093"
       inkscape:locked="false" /><sodipodi:guide
       position="312.71073,191.91662"
       orientation="0,-1"
       id="guide5095"
       inkscape:locked="false" /></sodipodi:namedview><defs
     id="defs2" /><circle
     style="fill:#ffffff;fill-opacity:1;stroke:#000000;stroke-width:3.148;stroke-dasharray:none;stroke-opacity:1"
     id="circle6563"
     cx="-107.97256"
     cy="107.97246"
     r="106.39857"
     transform="rotate(-90)" /><path
     id="path6565"
     style="fill:#ff0000;fill-opacity:1;stroke:none;stroke-width:0.611644"
     d="m 92.377232,23.88219 v 3.428102 l -3.4218,-8e-6 -5e-4,3.421164 0.1008,0.100795 3.4214,2.84e-4 v 3.421171 l 6e-4,5.61e-4 3.4215,2.85e-4 v 3.421171 l 5e-4,5.61e-4 3.4215,2.85e-4 3e-4,3.421472 0.1005,0.100494 h 3.421198 v 3.421171 l 5e-4,5.61e-4 3.4218,5.77e-4 3e-4,3.421456 5e-4,5.61e-4 3.4154,1.6e-5 0.1063,-0.106296 -1e-4,-3.416524 3.4164,2.69e-4 0.01,-0.0055 2e-4,-3.416801 3.4169,-3e-4 0.01,-0.0055 -3e-4,-3.41567 3.4162,-2.53e-4 0.1057,-0.105734 6e-4,-3.416564 3.4157,3.08e-4 0.01,-0.0063 v -3.41601 l 3.4162,-2.45e-4 0.01,-0.0055 3e-4,-3.416232 -4e-4,-2.92e-4 -3.4217,-8e-6 -5e-4,-3.42231 -0.1,-0.09992 -3.4226,2.61e-4 6e-4,-3.421724 -3.4226,-3.1e-4 6e-4,-3.4223 -3.4221,-3e-4 v -3.421747 l -0.1,-0.0999 -3.422,-2.9e-4 -1e-4,-3.4217499 -3.4222,5.5e-4 v 3.4217399 l -3.4281,1e-5 -0.094,0.0939 v 3.428107 l -3.421798,-10e-6 -5e-4,3.4223 -3.422,2.7e-4 -1e-4,3.421792 -3.4281,8e-6 z" /><rect
     style="fill:#ffffff;fill-opacity:1;stroke:none;stroke-width:0.0701546"
     id="rect6567"
     width="5.9449697"
     height="1.9816521"
     x="99.882614"
     y="28.030041" /><rect
     style="fill:#ffffff;fill-opacity:1;stroke:none;stroke-width:0.0701546"
     id="rect6569"
     width="5.9449697"
     height="1.9816521"
     x="110.14409"
     y="28.030041" /><rect
     style="fill:#ffffff;fill-opacity:1;stroke:none;stroke-width:0.0701546"
     id="rect6571"
     width="5.9449697"
     height="1.9816521"
     x="34.939651"
     y="102.21014"
     transform="rotate(-52.317424)" /><rect
     style="fill:#ffffff;fill-opacity:1;stroke:none;stroke-width:0.0701546"
     id="rect6573"
     width="5.9449697"
     height="1.9816521"
     x="45.201248"
     y="102.21014"
     transform="rotate(-52.317424)" /><rect
     style="fill:#ffffff;fill-opacity:1;stroke:none;stroke-width:0.0701546"
     id="rect6575"
     width="5.9449697"
     height="1.9816521"
     x="-96.647324"
     y="67.295464"
     transform="rotate(-127.31742)" /><rect
     style="fill:#ffffff;fill-opacity:1;stroke:none;stroke-width:0.0701546"
     id="rect6577"
     width="5.9449697"
     height="1.9816521"
     x="-86.385849"
     y="67.295464"
     transform="rotate(-127.31742)" /><path
     id="path6579"
     style="fill:#ff0000;fill-opacity:1;stroke:none;stroke-width:0.611644"
     d="m 92.377232,23.88219 v 3.428102 l -3.4218,-8e-6 -5e-4,3.421164 0.1008,0.100795 3.4214,2.84e-4 v 3.421171 l 6e-4,5.61e-4 3.4215,2.85e-4 v 3.421171 l 5e-4,5.61e-4 3.4215,2.85e-4 3e-4,3.421472 0.1005,0.100494 h 3.421198 v 3.421171 l 5e-4,5.61e-4 3.4218,5.77e-4 3e-4,3.421456 5e-4,5.61e-4 3.4154,1.6e-5 0.1063,-0.106296 -1e-4,-3.416524 3.4164,2.69e-4 0.01,-0.0055 2e-4,-3.416801 3.4169,-3e-4 0.01,-0.0055 -3e-4,-3.41567 3.4162,-2.53e-4 0.1057,-0.105734 6e-4,-3.416564 3.4157,3.08e-4 0.01,-0.0063 v -3.41601 l 3.4162,-2.45e-4 0.01,-0.0055 3e-4,-3.416232 -4e-4,-2.92e-4 -3.4217,-8e-6 -5e-4,-3.42231 -0.1,-0.09992 -3.4226,2.61e-4 6e-4,-3.421724 -3.4226,-3.1e-4 6e-4,-3.4223 -3.4221,-3e-4 v -3.421747 l -0.1,-0.0999 -3.422,-2.9e-4 -1e-4,-3.4217499 -3.4222,5.5e-4 v 3.4217399 l -3.4281,1e-5 -0.094,0.0939 v 3.428107 l -3.421798,-10e-6 -5e-4,3.4223 -3.422,2.7e-4 -1e-4,3.421792 -3.4281,8e-6 z" /><rect
     style="fill:#ffffff;fill-opacity:1;stroke:none;stroke-width:0.0701546"
     id="rect6581"
     width="5.9449697"
     height="1.9816521"
     x="99.882614"
     y="28.030041" /><rect
     style="fill:#ffffff;fill-opacity:1;stroke:none;stroke-width:0.0701546"
     id="rect6583"
     width="5.9449697"
     height="1.9816521"
     x="110.14409"
     y="28.030041" /><rect
     style="fill:#ffffff;fill-opacity:1;stroke:none;stroke-width:0.0701546"
     id="rect6585"
     width="5.9449697"
     height="1.9816521"
     x="34.939651"
     y="102.21014"
     transform="rotate(-52.317424)" /><rect
     style="fill:#ffffff;fill-opacity:1;stroke:none;stroke-width:0.0701546"
     id="rect6587"
     width="5.9449697"
     height="1.9816521"
     x="45.201248"
     y="102.21014"
     transform="rotate(-52.317424)" /><rect
     style="fill:#ffffff;fill-opacity:1;stroke:none;stroke-width:0.0701546"
     id="rect6589"
     width="5.9449697"
     height="1.9816521"
     x="-96.647324"
     y="67.295464"
     transform="rotate(-127.31742)" /><rect
     style="fill:#ffffff;fill-opacity:1;stroke:none;stroke-width:0.0701546"
     id="rect6591"
     width="5.9449697"
     height="1.9816521"
     x="-86.385849"
     y="67.295464"
     transform="rotate(-127.31742)" /><path
     id="path6593"
     style="fill:#ff0000;fill-opacity:1;stroke:none;stroke-width:0.611644"
     d="m 70.210132,46.964811 v 3.428102 l -3.4218,-8e-6 -5e-4,3.421164 0.1008,0.100795 3.4214,2.84e-4 v 3.421171 l 6e-4,5.61e-4 3.4215,2.85e-4 v 3.421171 l 5e-4,5.61e-4 3.4215,2.85e-4 3e-4,3.421472 0.1005,0.100494 h 3.4212 v 3.421171 l 5e-4,5.61e-4 3.4218,5.77e-4 3e-4,3.421456 5e-4,5.61e-4 3.4154,1.6e-5 0.1063,-0.106296 -1e-4,-3.416524 3.4164,2.69e-4 0.01,-0.0055 2e-4,-3.416801 3.4169,-3e-4 0.01,-0.0055 -3e-4,-3.41567 3.4162,-2.53e-4 0.1057,-0.105734 6e-4,-3.416564 3.415698,3.08e-4 0.01,-0.0063 v -3.41601 l 3.4162,-2.45e-4 0.01,-0.0055 3e-4,-3.416232 -4e-4,-2.92e-4 -3.4217,-8e-6 -5e-4,-3.42231 -0.1,-0.09992 -3.422598,2.61e-4 6e-4,-3.421724 -3.4226,-3.1e-4 6e-4,-3.4223 -3.4221,-3e-4 v -3.42174 l -0.1,-0.0999 -3.422,-2.9e-4 -1e-4,-3.42175 -3.4222,5.5e-4 v 3.42174 l -3.4281,10e-6 -0.094,0.0939 v 3.4281 l -3.4218,-1e-5 -5e-4,3.4223 -3.422,2.7e-4 -10e-5,3.421792 -3.4281,8e-6 z" /><rect
     style="fill:#ffffff;fill-opacity:1;stroke:none;stroke-width:0.0701546"
     id="rect6595"
     width="5.9449697"
     height="1.9816521"
     x="77.7155"
     y="51.112659" /><rect
     style="fill:#ffffff;fill-opacity:1;stroke:none;stroke-width:0.0701546"
     id="rect6597"
     width="5.9449697"
     height="1.9816521"
     x="87.976974"
     y="51.112659" /><rect
     style="fill:#ffffff;fill-opacity:1;stroke:none;stroke-width:0.0701546"
     id="rect6599"
     width="5.9449697"
     height="1.9816521"
     x="3.121413"
     y="98.777031"
     transform="rotate(-52.317424)" /><rect
     style="fill:#ffffff;fill-opacity:1;stroke:none;stroke-width:0.0701546"
     id="rect6601"
     width="5.9449697"
     height="1.9816521"
     x="13.38301"
     y="98.777031"
     transform="rotate(-52.317424)" /><rect
     style="fill:#ffffff;fill-opacity:1;stroke:none;stroke-width:0.0701546"
     id="rect6603"
     width="5.9449697"
     height="1.9816521"
     x="-101.56627"
     y="35.672783"
     transform="rotate(-127.31742)" /><rect
     style="fill:#ffffff;fill-opacity:1;stroke:none;stroke-width:0.0701546"
     id="rect6605"
     width="5.9449697"
     height="1.9816521"
     x="-91.304794"
     y="35.672783"
     transform="rotate(-127.31742)" /><path
     id="path6607"
     style="fill:#ff0000;fill-opacity:1;stroke:none;stroke-width:0.611644"
     d="m 70.210132,46.964811 v 3.428102 l -3.4218,-8e-6 -5e-4,3.421164 0.1008,0.100795 3.4214,2.84e-4 v 3.421171 l 6e-4,5.61e-4 3.4215,2.85e-4 v 3.421171 l 5e-4,5.61e-4 3.4215,2.85e-4 3e-4,3.421472 0.1005,0.100494 h 3.4212 v 3.421171 l 5e-4,5.61e-4 3.4218,5.77e-4 3e-4,3.421456 5e-4,5.61e-4 3.4154,1.6e-5 0.1063,-0.106296 -1e-4,-3.416524 3.4164,2.69e-4 0.01,-0.0055 2e-4,-3.416801 3.4169,-3e-4 0.01,-0.0055 -3e-4,-3.41567 3.4162,-2.53e-4 0.1057,-0.105734 6e-4,-3.416564 3.415698,3.08e-4 0.01,-0.0063 v -3.41601 l 3.4162,-2.45e-4 0.01,-0.0055 3e-4,-3.416232 -4e-4,-2.92e-4 -3.4217,-8e-6 -5e-4,-3.42231 -0.1,-0.09992 -3.422598,2.61e-4 6e-4,-3.421724 -3.4226,-3.1e-4 6e-4,-3.4223 -3.4221,-3e-4 v -3.42174 l -0.1,-0.0999 -3.422,-2.9e-4 -1e-4,-3.42175 -3.4222,5.5e-4 v 3.42174 l -3.4281,10e-6 -0.094,0.0939 v 3.4281 l -3.4218,-1e-5 -5e-4,3.4223 -3.422,2.7e-4 -10e-5,3.421792 -3.4281,8e-6 z" /><rect
     style="fill:#ffffff;fill-opacity:1;stroke:none;stroke-width:0.0701546"
     id="rect6609"
     width="5.9449697"
     height="1.9816521"
     x="77.7155"
     y="51.112659" /><rect
     style="fill:#ffffff;fill-opacity:1;stroke:none;stroke-width:0.0701546"
     id="rect6611"
     width="5.9449697"
     height="1.9816521"
     x="87.976974"
     y="51.112659" /><rect
     style="fill:#ffffff;fill-opacity:1;stroke:none;stroke-width:0.0701546"
     id="rect6613"
     width="5.9449697"
     height="1.9816521"
     x="3.121413"
     y="98.777031"
     transform="rotate(-52.317424)" /><rect
     style="fill:#ffffff;fill-opacity:1;stroke:none;stroke-width:0.0701546"
     id="rect6615"
     width="5.9449697"
     height="1.9816521"
     x="13.38301"
     y="98.777031"
     transform="rotate(-52.317424)" /><rect
     style="fill:#ffffff;fill-opacity:1;stroke:none;stroke-width:0.0701546"
     id="rect6617"
     width="5.9449697"
     height="1.9816521"
     x="-101.56627"
     y="35.672783"
     transform="rotate(-127.31742)" /><rect
     style="fill:#ffffff;fill-opacity:1;stroke:none;stroke-width:0.0701546"
     id="rect6619"
     width="5.9449697"
     height="1.9816521"
     x="-91.304794"
     y="35.672783"
     transform="rotate(-127.31742)" /><path
     id="path6621"
     style="fill:#ff0000;fill-opacity:1;stroke:none;stroke-width:0.611644"
     d="m 114.51813,46.984513 v 3.428102 l -3.4218,-8e-6 -5e-4,3.421164 0.1008,0.100795 3.4214,2.84e-4 v 3.421171 l 6e-4,5.61e-4 3.4215,2.85e-4 v 3.421171 l 5e-4,5.61e-4 3.4215,2.85e-4 3e-4,3.421472 0.1005,0.100494 h 3.4212 v 3.421171 l 5e-4,5.61e-4 3.4218,5.77e-4 3e-4,3.421456 5e-4,5.61e-4 3.4154,1.6e-5 0.1063,-0.106296 -1e-4,-3.416524 3.4164,2.69e-4 0.01,-0.0055 2e-4,-3.416801 3.4169,-3e-4 0.01,-0.0055 -3e-4,-3.41567 3.4162,-2.53e-4 0.1057,-0.105734 6e-4,-3.416564 3.4157,3.08e-4 0.01,-0.0063 v -3.41601 l 3.4162,-2.45e-4 0.01,-0.0055 3e-4,-3.416232 -4e-4,-2.92e-4 -3.4217,-8e-6 -5e-4,-3.42231 -0.1,-0.09992 -3.4226,2.61e-4 6e-4,-3.421724 -3.4226,-3.1e-4 6e-4,-3.4223 -3.4221,-3e-4 v -3.42174 l -0.1,-0.0999 -3.422,-2.9e-4 -1e-4,-3.42175 -3.4222,5.5e-4 v 3.42174 l -3.4281,10e-6 -0.094,0.0939 v 3.4281 l -3.4218,-10e-6 -5e-4,3.4223 -3.422,2.7e-4 -10e-5,3.421792 -3.4281,8e-6 z" /><rect
     style="fill:#ffffff;fill-opacity:1;stroke:none;stroke-width:0.0701546"
     id="rect6623"
     width="5.9449697"
     height="1.9816521"
     x="122.02348"
     y="51.132359" /><rect
     style="fill:#ffffff;fill-opacity:1;stroke:none;stroke-width:0.0701546"
     id="rect6625"
     width="5.9449697"
     height="1.9816521"
     x="132.28496"
     y="51.132359" /><rect
     style="fill:#ffffff;fill-opacity:1;stroke:none;stroke-width:0.0701546"
     id="rect6627"
     width="5.9449697"
     height="1.9816521"
     x="30.190626"
     y="133.8548"
     transform="rotate(-52.317424)" /><rect
     style="fill:#ffffff;fill-opacity:1;stroke:none;stroke-width:0.0701546"
     id="rect6629"
     width="5.9449697"
     height="1.9816521"
     x="40.452225"
     y="133.8548"
     transform="rotate(-52.317424)" /><rect
     style="fill:#ffffff;fill-opacity:1;stroke:none;stroke-width:0.0701546"
     id="rect6631"
     width="5.9449697"
     height="1.9816521"
     x="-128.44273"
     y="70.898491"
     transform="rotate(-127.31742)" /><rect
     style="fill:#ffffff;fill-opacity:1;stroke:none;stroke-width:0.0701546"
     id="rect6633"
     width="5.9449697"
     height="1.9816521"
     x="-118.18126"
     y="70.898491"
     transform="rotate(-127.31742)" /><path
     id="path6635"
     style="fill:#ff0000;fill-opacity:1;stroke:none;stroke-width:0.611644"
     d="m 114.51813,46.984513 v 3.428102 l -3.4218,-8e-6 -5e-4,3.421164 0.1008,0.100795 3.4214,2.84e-4 v 3.421171 l 6e-4,5.61e-4 3.4215,2.85e-4 v 3.421171 l 5e-4,5.61e-4 3.4215,2.85e-4 3e-4,3.421472 0.1005,0.100494 h 3.4212 v 3.421171 l 5e-4,5.61e-4 3.4218,5.77e-4 3e-4,3.421456 5e-4,5.61e-4 3.4154,1.6e-5 0.1063,-0.106296 -1e-4,-3.416524 3.4164,2.69e-4 0.01,-0.0055 2e-4,-3.416801 3.4169,-3e-4 0.01,-0.0055 -3e-4,-3.41567 3.4162,-2.53e-4 0.1057,-0.105734 6e-4,-3.416564 3.4157,3.08e-4 0.01,-0.0063 v -3.41601 l 3.4162,-2.45e-4 0.01,-0.0055 3e-4,-3.416232 -4e-4,-2.92e-4 -3.4217,-8e-6 -5e-4,-3.42231 -0.1,-0.09992 -3.4226,2.61e-4 6e-4,-3.421724 -3.4226,-3.1e-4 6e-4,-3.4223 -3.4221,-3e-4 v -3.42174 l -0.1,-0.0999 -3.422,-2.9e-4 -1e-4,-3.42175 -3.4222,5.5e-4 v 3.42174 l -3.4281,10e-6 -0.094,0.0939 v 3.4281 l -3.4218,-10e-6 -5e-4,3.4223 -3.422,2.7e-4 -10e-5,3.421792 -3.4281,8e-6 z" /><rect
     style="fill:#ffffff;fill-opacity:1;stroke:none;stroke-width:0.0701546"
     id="rect6637"
     width="5.9449697"
     height="1.9816521"
     x="122.02348"
     y="51.132359" /><rect
     style="fill:#ffffff;fill-opacity:1;stroke:none;stroke-width:0.0701546"
     id="rect6639"
     width="5.9449697"
     height="1.9816521"
     x="132.28496"
     y="51.132359" /><rect
     style="fill:#ffffff;fill-opacity:1;stroke:none;stroke-width:0.0701546"
     id="rect6641"
     width="5.9449697"
     height="1.9816521"
     x="30.190626"
     y="133.8548"
     transform="rotate(-52.317424)" /><rect
     style="fill:#ffffff;fill-opacity:1;stroke:none;stroke-width:0.0701546"
     id="rect6643"
     width="5.9449697"
     height="1.9816521"
     x="40.452225"
     y="133.8548"
     transform="rotate(-52.317424)" /><rect
     style="fill:#ffffff;fill-opacity:1;stroke:none;stroke-width:0.0701546"
     id="rect6645"
     width="5.9449697"
     height="1.9816521"
     x="-128.44273"
     y="70.898491"
     transform="rotate(-127.31742)" /><rect
     style="fill:#ffffff;fill-opacity:1;stroke:none;stroke-width:0.0701546"
     id="rect6647"
     width="5.9449697"
     height="1.9816521"
     x="-118.18126"
     y="70.898491"
     transform="rotate(-127.31742)" /><path
     id="path6649"
     style="fill:#ff0000;fill-opacity:1;stroke:none;stroke-width:0.611644"
     d="m 92.351032,70.067163 v 3.428102 l -3.4218,-8e-6 -5e-4,3.421164 0.1008,0.100795 3.4214,2.84e-4 v 3.421171 l 6e-4,5.61e-4 3.4215,2.85e-4 v 3.421171 l 5e-4,5.61e-4 3.4215,2.85e-4 3e-4,3.421472 0.1005,0.100494 h 3.421198 v 3.421171 l 5e-4,5.61e-4 3.4218,5.77e-4 3e-4,3.421456 5e-4,5.61e-4 3.4154,1.6e-5 0.1063,-0.106296 -1e-4,-3.416524 3.4164,2.69e-4 0.01,-0.0055 2e-4,-3.416801 3.4169,-3e-4 0.01,-0.0055 -3e-4,-3.41567 3.4162,-2.53e-4 0.1057,-0.105734 6e-4,-3.416564 3.4157,3.08e-4 0.01,-0.0063 v -3.41601 l 3.4162,-2.45e-4 0.01,-0.0055 3e-4,-3.416232 -4e-4,-2.92e-4 -3.4217,-8e-6 -5e-4,-3.42231 -0.1,-0.09992 -3.4226,2.61e-4 6e-4,-3.421724 -3.4226,-3.1e-4 6e-4,-3.4223 -3.4221,-3e-4 v -3.42174 l -0.1,-0.0999 -3.422,-2.9e-4 -10e-5,-3.42175 -3.4222,5.5e-4 v 3.42174 l -3.4281,1e-5 -0.094,0.0939 v 3.4281 l -3.421798,-10e-6 -5e-4,3.4223 -3.422,2.7e-4 -1e-4,3.421792 -3.4281,8e-6 z" /><rect
     style="fill:#ffffff;fill-opacity:1;stroke:none;stroke-width:0.0701546"
     id="rect6651"
     width="5.9449697"
     height="1.9816521"
     x="99.856369"
     y="74.215004" /><rect
     style="fill:#ffffff;fill-opacity:1;stroke:none;stroke-width:0.0701546"
     id="rect6653"
     width="5.9449697"
     height="1.9816521"
     x="110.11784"
     y="74.215004" /><rect
     style="fill:#ffffff;fill-opacity:1;stroke:none;stroke-width:0.0701546"
     id="rect6655"
     width="5.9449697"
     height="1.9816521"
     x="-1.6276104"
     y="130.42169"
     transform="rotate(-52.317424)" /><rect
     style="fill:#ffffff;fill-opacity:1;stroke:none;stroke-width:0.0701546"
     id="rect6657"
     width="5.9449697"
     height="1.9816521"
     x="8.6339865"
     y="130.42169"
     transform="rotate(-52.317424)" /><rect
     style="fill:#ffffff;fill-opacity:1;stroke:none;stroke-width:0.0701546"
     id="rect6659"
     width="5.9449697"
     height="1.9816521"
     x="-133.3618"
     y="39.275932"
     transform="rotate(-127.31742)" /><rect
     style="fill:#ffffff;fill-opacity:1;stroke:none;stroke-width:0.0701546"
     id="rect6661"
     width="5.9449697"
     height="1.9816521"
     x="-123.10033"
     y="39.275932"
     transform="rotate(-127.31742)" /><path
     id="path6663"
     style="fill:#ff0000;fill-opacity:1;stroke:none;stroke-width:0.611644"
     d="m 92.351032,70.067163 v 3.428102 l -3.4218,-8e-6 -5e-4,3.421164 0.1008,0.100795 3.4214,2.84e-4 v 3.421171 l 6e-4,5.61e-4 3.4215,2.85e-4 v 3.421171 l 5e-4,5.61e-4 3.4215,2.85e-4 3e-4,3.421472 0.1005,0.100494 h 3.421198 v 3.421171 l 5e-4,5.61e-4 3.4218,5.77e-4 3e-4,3.421456 5e-4,5.61e-4 3.4154,1.6e-5 0.1063,-0.106296 -1e-4,-3.416524 3.4164,2.69e-4 0.01,-0.0055 2e-4,-3.416801 3.4169,-3e-4 0.01,-0.0055 -3e-4,-3.41567 3.4162,-2.53e-4 0.1057,-0.105734 6e-4,-3.416564 3.4157,3.08e-4 0.01,-0.0063 v -3.41601 l 3.4162,-2.45e-4 0.01,-0.0055 3e-4,-3.416232 -4e-4,-2.92e-4 -3.4217,-8e-6 -5e-4,-3.42231 -0.1,-0.09992 -3.4226,2.61e-4 6e-4,-3.421724 -3.4226,-3.1e-4 6e-4,-3.4223 -3.4221,-3e-4 v -3.42174 l -0.1,-0.0999 -3.422,-2.9e-4 -10e-5,-3.42175 -3.4222,5.5e-4 v 3.42174 l -3.4281,1e-5 -0.094,0.0939 v 3.4281 l -3.421798,-10e-6 -5e-4,3.4223 -3.422,2.7e-4 -1e-4,3.421792 -3.4281,8e-6 z" /><rect
     style="fill:#ffffff;fill-opacity:1;stroke:none;stroke-width:0.0701546"
     id="rect6665"
     width="5.9449697"
     height="1.9816521"
     x="99.856369"
     y="74.215004" /><rect
     style="fill:#ffffff;fill-opacity:1;stroke:none;stroke-width:0.0701546"
     id="rect6667"
     width="5.9449697"
     height="1.9816521"
     x="110.11784"
     y="74.215004" /><rect
     style="fill:#ffffff;fill-opacity:1;stroke:none;stroke-width:0.0701546"
     id="rect6669"
     width="5.9449697"
     height="1.9816521"
     x="-1.6276104"
     y="130.42169"
     transform="rotate(-52.317424)" /><rect
     style="fill:#ffffff;fill-opacity:1;stroke:none;stroke-width:0.0701546"
     id="rect6671"
     width="5.9449697"
     height="1.9816521"
     x="8.6339865"
     y="130.42169"
     transform="rotate(-52.317424)" /><rect
     style="fill:#ffffff;fill-opacity:1;stroke:none;stroke-width:0.0701546"
     id="rect6673"
     width="5.9449697"
     height="1.9816521"
     x="-133.3618"
     y="39.275932"
     transform="rotate(-127.31742)" /><rect
     style="fill:#ffffff;fill-opacity:1;stroke:none;stroke-width:0.0701546"
     id="rect6675"
     width="5.9449697"
     height="1.9816521"
     x="-123.10033"
     y="39.275932"
     transform="rotate(-127.31742)" /><g
     id="g6789"
     transform="rotate(-90,-711.40602,-833.00253)"><path
       id="path6677"
       style="fill:#ff0000;fill-opacity:1;stroke:none;stroke-width:0.611644"
       d="m -1667.9762,-97.714384 v 3.428102 l -3.4218,-8e-6 -5e-4,3.421164 0.1008,0.100795 3.4214,2.84e-4 v 3.421171 l 6e-4,5.61e-4 3.4215,2.85e-4 v 3.421171 l 5e-4,5.61e-4 3.4215,2.85e-4 3e-4,3.421472 0.1005,0.100494 h 3.4212 v 3.421171 l 5e-4,5.61e-4 3.4218,5.77e-4 3e-4,3.421456 5e-4,5.61e-4 3.4154,1.6e-5 0.1063,-0.106296 -10e-5,-3.416524 3.4164,2.69e-4 0.01,-0.0055 2e-4,-3.416801 3.4169,-3e-4 0.01,-0.0055 -3e-4,-3.41567 3.4162,-2.53e-4 0.1057,-0.105734 6e-4,-3.416564 3.4157,3.08e-4 0.01,-0.0063 v -3.41601 l 3.4162,-2.45e-4 0.01,-0.0055 3e-4,-3.416232 -4e-4,-2.92e-4 -3.4217,-8e-6 -5e-4,-3.42231 -0.1,-0.09992 -3.4226,2.61e-4 6e-4,-3.421724 -3.4226,-3.1e-4 6e-4,-3.4223 -3.4221,-3e-4 v -3.42174 l -0.1,-0.0999 -3.422,-2.9e-4 -10e-5,-3.42175 -3.4222,5.5e-4 v 3.42174 l -3.4281,1e-5 -0.094,0.0939 v 3.4281 l -3.4218,-1e-5 -5e-4,3.4223 -3.422,2.7e-4 -1e-4,3.421792 -3.4281,8e-6 z" /><rect
       style="fill:#ffffff;fill-opacity:1;stroke:none;stroke-width:0.0701546"
       id="rect6679"
       width="5.9449697"
       height="1.9816521"
       x="-1660.4709"
       y="-93.566536" /><rect
       style="fill:#ffffff;fill-opacity:1;stroke:none;stroke-width:0.0701546"
       id="rect6681"
       width="5.9449697"
       height="1.9816521"
       x="-1650.2095"
       y="-93.566536" /><rect
       style="fill:#ffffff;fill-opacity:1;stroke:none;stroke-width:0.0701546"
       id="rect6683"
       width="5.9449697"
       height="1.9816521"
       x="-944.9079"
       y="-1365.2806"
       transform="rotate(-52.317424)" /><rect
       style="fill:#ffffff;fill-opacity:1;stroke:none;stroke-width:0.0701546"
       id="rect6685"
       width="5.9449697"
       height="1.9816521"
       x="-934.6463"
       y="-1365.2806"
       transform="rotate(-52.317424)" /><rect
       style="fill:#ffffff;fill-opacity:1;stroke:none;stroke-width:0.0701546"
       id="rect6687"
       width="5.9449697"
       height="1.9816521"
       x="1067.2366"
       y="-1258.9791"
       transform="rotate(-127.31742)" /><rect
       style="fill:#ffffff;fill-opacity:1;stroke:none;stroke-width:0.0701546"
       id="rect6689"
       width="5.9449697"
       height="1.9816521"
       x="1077.498"
       y="-1258.9791"
       transform="rotate(-127.31742)" /><path
       id="path6691"
       style="fill:#ff0000;fill-opacity:1;stroke:none;stroke-width:0.611644"
       d="m -1667.9762,-97.714384 v 3.428102 l -3.4218,-8e-6 -5e-4,3.421164 0.1008,0.100795 3.4214,2.84e-4 v 3.421171 l 6e-4,5.61e-4 3.4215,2.85e-4 v 3.421171 l 5e-4,5.61e-4 3.4215,2.85e-4 3e-4,3.421472 0.1005,0.100494 h 3.4212 v 3.421171 l 5e-4,5.61e-4 3.4218,5.77e-4 3e-4,3.421456 5e-4,5.61e-4 3.4154,1.6e-5 0.1063,-0.106296 -10e-5,-3.416524 3.4164,2.69e-4 0.01,-0.0055 2e-4,-3.416801 3.4169,-3e-4 0.01,-0.0055 -3e-4,-3.41567 3.4162,-2.53e-4 0.1057,-0.105734 6e-4,-3.416564 3.4157,3.08e-4 0.01,-0.0063 v -3.41601 l 3.4162,-2.45e-4 0.01,-0.0055 3e-4,-3.416232 -4e-4,-2.92e-4 -3.4217,-8e-6 -5e-4,-3.42231 -0.1,-0.09992 -3.4226,2.61e-4 6e-4,-3.421724 -3.4226,-3.1e-4 6e-4,-3.4223 -3.4221,-3e-4 v -3.42174 l -0.1,-0.0999 -3.422,-2.9e-4 -10e-5,-3.42175 -3.4222,5.5e-4 v 3.42174 l -3.4281,1e-5 -0.094,0.0939 v 3.4281 l -3.4218,-1e-5 -5e-4,3.4223 -3.422,2.7e-4 -1e-4,3.421792 -3.4281,8e-6 z" /><rect
       style="fill:#ffffff;fill-opacity:1;stroke:none;stroke-width:0.0701546"
       id="rect6693"
       width="5.9449697"
       height="1.9816521"
       x="-1660.4709"
       y="-93.566536" /><rect
       style="fill:#ffffff;fill-opacity:1;stroke:none;stroke-width:0.0701546"
       id="rect6695"
       width="5.9449697"
       height="1.9816521"
       x="-1650.2095"
       y="-93.566536" /><rect
       style="fill:#ffffff;fill-opacity:1;stroke:none;stroke-width:0.0701546"
       id="rect6697"
       width="5.9449697"
       height="1.9816521"
       x="-944.9079"
       y="-1365.2806"
       transform="rotate(-52.317424)" /><rect
       style="fill:#ffffff;fill-opacity:1;stroke:none;stroke-width:0.0701546"
       id="rect6699"
       width="5.9449697"
       height="1.9816521"
       x="-934.6463"
       y="-1365.2806"
       transform="rotate(-52.317424)" /><rect
       style="fill:#ffffff;fill-opacity:1;stroke:none;stroke-width:0.0701546"
       id="rect6701"
       width="5.9449697"
       height="1.9816521"
       x="1067.2366"
       y="-1258.9791"
       transform="rotate(-127.31742)" /><rect
       style="fill:#ffffff;fill-opacity:1;stroke:none;stroke-width:0.0701546"
       id="rect6703"
       width="5.9449697"
       height="1.9816521"
       x="1077.498"
       y="-1258.9791"
       transform="rotate(-127.31742)" /><path
       id="path6705"
       style="fill:#ff0000;fill-opacity:1;stroke:none;stroke-width:0.611644"
       d="m -1690.1433,-74.631763 v 3.428102 l -3.4218,-8e-6 -5e-4,3.421164 0.1008,0.100795 3.4214,2.84e-4 v 3.421171 l 6e-4,5.61e-4 3.4215,2.85e-4 v 3.421171 l 5e-4,5.61e-4 3.4215,2.85e-4 3e-4,3.421472 0.1005,0.100494 h 3.4212 v 3.421171 l 5e-4,5.61e-4 3.4218,5.77e-4 3e-4,3.421456 5e-4,5.61e-4 3.4154,1.6e-5 0.1063,-0.106296 -10e-5,-3.416524 3.4164,2.69e-4 0.01,-0.0055 2e-4,-3.416801 3.4169,-3e-4 0.01,-0.0055 -3e-4,-3.41567 3.4162,-2.53e-4 0.1057,-0.105734 6e-4,-3.416564 3.4157,3.08e-4 0.01,-0.0063 v -3.41601 l 3.4162,-2.45e-4 0.01,-0.0055 3e-4,-3.416232 -4e-4,-2.92e-4 -3.4217,-8e-6 -5e-4,-3.42231 -0.1,-0.09992 -3.4226,2.61e-4 6e-4,-3.421724 -3.4226,-3.1e-4 6e-4,-3.4223 -3.4221,-3e-4 v -3.42174 l -0.1,-0.0999 -3.422,-2.9e-4 -10e-5,-3.42175 -3.4222,5.5e-4 v 3.42174 l -3.4281,1e-5 -0.094,0.0939 v 3.4281 l -3.4218,-1e-5 -5e-4,3.4223 -3.422,2.7e-4 -10e-5,3.421792 -3.4281,8e-6 z" /><rect
       style="fill:#ffffff;fill-opacity:1;stroke:none;stroke-width:0.0701546"
       id="rect6707"
       width="5.9449697"
       height="1.9816521"
       x="-1682.6381"
       y="-70.483917" /><rect
       style="fill:#ffffff;fill-opacity:1;stroke:none;stroke-width:0.0701546"
       id="rect6709"
       width="5.9449697"
       height="1.9816521"
       x="-1672.3766"
       y="-70.483917" /><rect
       style="fill:#ffffff;fill-opacity:1;stroke:none;stroke-width:0.0701546"
       id="rect6711"
       width="5.9449697"
       height="1.9816521"
       x="-976.72614"
       y="-1368.7137"
       transform="rotate(-52.317424)" /><rect
       style="fill:#ffffff;fill-opacity:1;stroke:none;stroke-width:0.0701546"
       id="rect6713"
       width="5.9449697"
       height="1.9816521"
       x="-966.46454"
       y="-1368.7137"
       transform="rotate(-52.317424)" /><rect
       style="fill:#ffffff;fill-opacity:1;stroke:none;stroke-width:0.0701546"
       id="rect6715"
       width="5.9449697"
       height="1.9816521"
       x="1062.3176"
       y="-1290.6018"
       transform="rotate(-127.31742)" /><rect
       style="fill:#ffffff;fill-opacity:1;stroke:none;stroke-width:0.0701546"
       id="rect6717"
       width="5.9449697"
       height="1.9816521"
       x="1072.5791"
       y="-1290.6018"
       transform="rotate(-127.31742)" /><path
       id="path6719"
       style="fill:#ff0000;fill-opacity:1;stroke:none;stroke-width:0.611644"
       d="m -1690.1433,-74.631763 v 3.428102 l -3.4218,-8e-6 -5e-4,3.421164 0.1008,0.100795 3.4214,2.84e-4 v 3.421171 l 6e-4,5.61e-4 3.4215,2.85e-4 v 3.421171 l 5e-4,5.61e-4 3.4215,2.85e-4 3e-4,3.421472 0.1005,0.100494 h 3.4212 v 3.421171 l 5e-4,5.61e-4 3.4218,5.77e-4 3e-4,3.421456 5e-4,5.61e-4 3.4154,1.6e-5 0.1063,-0.106296 -10e-5,-3.416524 3.4164,2.69e-4 0.01,-0.0055 2e-4,-3.416801 3.4169,-3e-4 0.01,-0.0055 -3e-4,-3.41567 3.4162,-2.53e-4 0.1057,-0.105734 6e-4,-3.416564 3.4157,3.08e-4 0.01,-0.0063 v -3.41601 l 3.4162,-2.45e-4 0.01,-0.0055 3e-4,-3.416232 -4e-4,-2.92e-4 -3.4217,-8e-6 -5e-4,-3.42231 -0.1,-0.09992 -3.4226,2.61e-4 6e-4,-3.421724 -3.4226,-3.1e-4 6e-4,-3.4223 -3.4221,-3e-4 v -3.42174 l -0.1,-0.0999 -3.422,-2.9e-4 -10e-5,-3.42175 -3.4222,5.5e-4 v 3.42174 l -3.4281,1e-5 -0.094,0.0939 v 3.4281 l -3.4218,-1e-5 -5e-4,3.4223 -3.422,2.7e-4 -10e-5,3.421792 -3.4281,8e-6 z" /><rect
       style="fill:#ffffff;fill-opacity:1;stroke:none;stroke-width:0.0701546"
       id="rect6721"
       width="5.9449697"
       height="1.9816521"
       x="-1682.6381"
       y="-70.483917" /><rect
       style="fill:#ffffff;fill-opacity:1;stroke:none;stroke-width:0.0701546"
       id="rect6723"
       width="5.9449697"
       height="1.9816521"
       x="-1672.3766"
       y="-70.483917" /><rect
       style="fill:#ffffff;fill-opacity:1;stroke:none;stroke-width:0.0701546"
       id="rect6725"
       width="5.9449697"
       height="1.9816521"
       x="-976.72614"
       y="-1368.7137"
       transform="rotate(-52.317424)" /><rect
       style="fill:#ffffff;fill-opacity:1;stroke:none;stroke-width:0.0701546"
       id="rect6727"
       width="5.9449697"
       height="1.9816521"
       x="-966.46454"
       y="-1368.7137"
       transform="rotate(-52.317424)" /><rect
       style="fill:#ffffff;fill-opacity:1;stroke:none;stroke-width:0.0701546"
       id="rect6729"
       width="5.9449697"
       height="1.9816521"
       x="1062.3176"
       y="-1290.6018"
       transform="rotate(-127.31742)" /><rect
       style="fill:#ffffff;fill-opacity:1;stroke:none;stroke-width:0.0701546"
       id="rect6731"
       width="5.9449697"
       height="1.9816521"
       x="1072.5791"
       y="-1290.6018"
       transform="rotate(-127.31742)" /><path
       id="path6733"
       style="fill:#ff0000;fill-opacity:1;stroke:none;stroke-width:0.611644"
       d="m -1645.8353,-74.612061 v 3.428102 l -3.4218,-8e-6 -5e-4,3.421164 0.1008,0.100795 3.4214,2.84e-4 v 3.421171 l 6e-4,5.61e-4 3.4215,2.85e-4 v 3.421171 l 5e-4,5.61e-4 3.4215,2.85e-4 3e-4,3.421472 0.1005,0.100494 h 3.4212 v 3.421171 l 5e-4,5.61e-4 3.4218,5.77e-4 3e-4,3.421456 5e-4,5.61e-4 3.4154,1.6e-5 0.1063,-0.106296 -10e-5,-3.416524 3.4164,2.69e-4 0.01,-0.0055 2e-4,-3.416801 3.4169,-3e-4 0.01,-0.0055 -3e-4,-3.41567 3.4162,-2.53e-4 0.1057,-0.105734 6e-4,-3.416564 3.4157,3.08e-4 0.01,-0.0063 v -3.41601 l 3.4162,-2.45e-4 0.01,-0.0055 3e-4,-3.416232 -4e-4,-2.92e-4 -3.4217,-8e-6 -5e-4,-3.42231 -0.1,-0.09992 -3.4226,2.61e-4 6e-4,-3.421724 -3.4226,-3.1e-4 6e-4,-3.4223 -3.4221,-3e-4 v -3.42174 l -0.1,-0.0999 -3.422,-2.9e-4 -10e-5,-3.42175 -3.4222,5.5e-4 v 3.42174 l -3.4281,10e-6 -0.094,0.0939 v 3.4281 l -3.4218,-1e-5 -5e-4,3.4223 -3.422,2.7e-4 -10e-5,3.421792 -3.4281,8e-6 z" /><rect
       style="fill:#ffffff;fill-opacity:1;stroke:none;stroke-width:0.0701546"
       id="rect6735"
       width="5.9449697"
       height="1.9816521"
       x="-1638.3301"
       y="-70.464218" /><rect
       style="fill:#ffffff;fill-opacity:1;stroke:none;stroke-width:0.0701546"
       id="rect6737"
       width="5.9449697"
       height="1.9816521"
       x="-1628.0686"
       y="-70.464218" /><rect
       style="fill:#ffffff;fill-opacity:1;stroke:none;stroke-width:0.0701546"
       id="rect6739"
       width="5.9449697"
       height="1.9816521"
       x="-949.65686"
       y="-1333.636"
       transform="rotate(-52.317424)" /><rect
       style="fill:#ffffff;fill-opacity:1;stroke:none;stroke-width:0.0701546"
       id="rect6741"
       width="5.9449697"
       height="1.9816521"
       x="-939.39526"
       y="-1333.636"
       transform="rotate(-52.317424)" /><rect
       style="fill:#ffffff;fill-opacity:1;stroke:none;stroke-width:0.0701546"
       id="rect6743"
       width="5.9449697"
       height="1.9816521"
       x="1035.4412"
       y="-1255.3761"
       transform="rotate(-127.31742)" /><rect
       style="fill:#ffffff;fill-opacity:1;stroke:none;stroke-width:0.0701546"
       id="rect6745"
       width="5.9449697"
       height="1.9816521"
       x="1045.7026"
       y="-1255.3761"
       transform="rotate(-127.31742)" /><path
       id="path6747"
       style="fill:#ff0000;fill-opacity:1;stroke:none;stroke-width:0.611644"
       d="m -1645.8353,-74.612061 v 3.428102 l -3.4218,-8e-6 -5e-4,3.421164 0.1008,0.100795 3.4214,2.84e-4 v 3.421171 l 6e-4,5.61e-4 3.4215,2.85e-4 v 3.421171 l 5e-4,5.61e-4 3.4215,2.85e-4 3e-4,3.421472 0.1005,0.100494 h 3.4212 v 3.421171 l 5e-4,5.61e-4 3.4218,5.77e-4 3e-4,3.421456 5e-4,5.61e-4 3.4154,1.6e-5 0.1063,-0.106296 -10e-5,-3.416524 3.4164,2.69e-4 0.01,-0.0055 2e-4,-3.416801 3.4169,-3e-4 0.01,-0.0055 -3e-4,-3.41567 3.4162,-2.53e-4 0.1057,-0.105734 6e-4,-3.416564 3.4157,3.08e-4 0.01,-0.0063 v -3.41601 l 3.4162,-2.45e-4 0.01,-0.0055 3e-4,-3.416232 -4e-4,-2.92e-4 -3.4217,-8e-6 -5e-4,-3.42231 -0.1,-0.09992 -3.4226,2.61e-4 6e-4,-3.421724 -3.4226,-3.1e-4 6e-4,-3.4223 -3.4221,-3e-4 v -3.42174 l -0.1,-0.0999 -3.422,-2.9e-4 -10e-5,-3.42175 -3.4222,5.5e-4 v 3.42174 l -3.4281,10e-6 -0.094,0.0939 v 3.4281 l -3.4218,-1e-5 -5e-4,3.4223 -3.422,2.7e-4 -10e-5,3.421792 -3.4281,8e-6 z" /><rect
       style="fill:#ffffff;fill-opacity:1;stroke:none;stroke-width:0.0701546"
       id="rect6749"
       width="5.9449697"
       height="1.9816521"
       x="-1638.3301"
       y="-70.464218" /><rect
       style="fill:#ffffff;fill-opacity:1;stroke:none;stroke-width:0.0701546"
       id="rect6751"
       width="5.9449697"
       height="1.9816521"
       x="-1628.0686"
       y="-70.464218" /><rect
       style="fill:#ffffff;fill-opacity:1;stroke:none;stroke-width:0.0701546"
       id="rect6753"
       width="5.9449697"
       height="1.9816521"
       x="-949.65686"
       y="-1333.636"
       transform="rotate(-52.317424)" /><rect
       style="fill:#ffffff;fill-opacity:1;stroke:none;stroke-width:0.0701546"
       id="rect6755"
       width="5.9449697"
       height="1.9816521"
       x="-939.39526"
       y="-1333.636"
       transform="rotate(-52.317424)" /><rect
       style="fill:#ffffff;fill-opacity:1;stroke:none;stroke-width:0.0701546"
       id="rect6757"
       width="5.9449697"
       height="1.9816521"
       x="1035.4412"
       y="-1255.3761"
       transform="rotate(-127.31742)" /><rect
       style="fill:#ffffff;fill-opacity:1;stroke:none;stroke-width:0.0701546"
       id="rect6759"
       width="5.9449697"
       height="1.9816521"
       x="1045.7026"
       y="-1255.3761"
       transform="rotate(-127.31742)" /><path
       id="path6761"
       style="fill:#ff0000;fill-opacity:1;stroke:none;stroke-width:0.611644"
       d="m -1668.0024,-51.529411 v 3.428102 l -3.4218,-8e-6 -5e-4,3.421164 0.1008,0.100795 3.4214,2.84e-4 v 3.421171 l 6e-4,5.61e-4 3.4215,2.85e-4 v 3.421171 l 5e-4,5.61e-4 3.4215,2.85e-4 3e-4,3.421472 0.1005,0.100494 h 3.4212 v 3.421171 l 5e-4,5.61e-4 3.4218,5.77e-4 3e-4,3.421456 5e-4,5.61e-4 3.4154,1.6e-5 0.1063,-0.106296 -10e-5,-3.416524 3.4164,2.69e-4 0.01,-0.0055 2e-4,-3.416801 3.4169,-3e-4 0.01,-0.0055 -3e-4,-3.41567 3.4162,-2.53e-4 0.1057,-0.105734 6e-4,-3.416564 3.4157,3.08e-4 0.01,-0.0063 v -3.41601 l 3.4162,-2.45e-4 0.01,-0.0055 3e-4,-3.416232 -4e-4,-2.92e-4 -3.4217,-8e-6 -5e-4,-3.42231 -0.1,-0.09992 -3.4226,2.61e-4 6e-4,-3.421724 -3.4226,-3.1e-4 6e-4,-3.4223 -3.4221,-3e-4 v -3.42174 l -0.1,-0.0999 -3.422,-2.9e-4 -10e-5,-3.42175 -3.4222,5.5e-4 v 3.42174 l -3.4281,1e-5 -0.094,0.0939 v 3.4281 l -3.4218,-1e-5 -5e-4,3.4223 -3.422,2.7e-4 -10e-5,3.421792 -3.4281,8e-6 z" /><rect
       style="fill:#ffffff;fill-opacity:1;stroke:none;stroke-width:0.0701546"
       id="rect6763"
       width="5.9449697"
       height="1.9816521"
       x="-1660.4972"
       y="-47.381569" /><rect
       style="fill:#ffffff;fill-opacity:1;stroke:none;stroke-width:0.0701546"
       id="rect6765"
       width="5.9449697"
       height="1.9816521"
       x="-1650.2357"
       y="-47.381569" /><rect
       style="fill:#ffffff;fill-opacity:1;stroke:none;stroke-width:0.0701546"
       id="rect6767"
       width="5.9449697"
       height="1.9816521"
       x="-981.4751"
       y="-1337.0691"
       transform="rotate(-52.317424)" /><rect
       style="fill:#ffffff;fill-opacity:1;stroke:none;stroke-width:0.0701546"
       id="rect6769"
       width="5.9449697"
       height="1.9816521"
       x="-971.2135"
       y="-1337.0691"
       transform="rotate(-52.317424)" /><rect
       style="fill:#ffffff;fill-opacity:1;stroke:none;stroke-width:0.0701546"
       id="rect6771"
       width="5.9449697"
       height="1.9816521"
       x="1030.5221"
       y="-1286.9988"
       transform="rotate(-127.31742)" /><rect
       style="fill:#ffffff;fill-opacity:1;stroke:none;stroke-width:0.0701546"
       id="rect6773"
       width="5.9449697"
       height="1.9816521"
       x="1040.7836"
       y="-1286.9988"
       transform="rotate(-127.31742)" /><path
       id="path6775"
       style="fill:#ff0000;fill-opacity:1;stroke:none;stroke-width:0.611644"
       d="m -1668.0024,-51.529411 v 3.428102 l -3.4218,-8e-6 -5e-4,3.421164 0.1008,0.100795 3.4214,2.84e-4 v 3.421171 l 6e-4,5.61e-4 3.4215,2.85e-4 v 3.421171 l 5e-4,5.61e-4 3.4215,2.85e-4 3e-4,3.421472 0.1005,0.100494 h 3.4212 v 3.421171 l 5e-4,5.61e-4 3.4218,5.77e-4 3e-4,3.421456 5e-4,5.61e-4 3.4154,1.6e-5 0.1063,-0.106296 -10e-5,-3.416524 3.4164,2.69e-4 0.01,-0.0055 2e-4,-3.416801 3.4169,-3e-4 0.01,-0.0055 -3e-4,-3.41567 3.4162,-2.53e-4 0.1057,-0.105734 6e-4,-3.416564 3.4157,3.08e-4 0.01,-0.0063 v -3.41601 l 3.4162,-2.45e-4 0.01,-0.0055 3e-4,-3.416232 -4e-4,-2.92e-4 -3.4217,-8e-6 -5e-4,-3.42231 -0.1,-0.09992 -3.4226,2.61e-4 6e-4,-3.421724 -3.4226,-3.1e-4 6e-4,-3.4223 -3.4221,-3e-4 v -3.42174 l -0.1,-0.0999 -3.422,-2.9e-4 -10e-5,-3.42175 -3.4222,5.5e-4 v 3.42174 l -3.4281,1e-5 -0.094,0.0939 v 3.4281 l -3.4218,-1e-5 -5e-4,3.4223 -3.422,2.7e-4 -10e-5,3.421792 -3.4281,8e-6 z" /><rect
       style="fill:#ffffff;fill-opacity:1;stroke:none;stroke-width:0.0701546"
       id="rect6777"
       width="5.9449697"
       height="1.9816521"
       x="-1660.4972"
       y="-47.381569" /><rect
       style="fill:#ffffff;fill-opacity:1;stroke:none;stroke-width:0.0701546"
       id="rect6779"
       width="5.9449697"
       height="1.9816521"
       x="-1650.2357"
       y="-47.381569" /><rect
       style="fill:#ffffff;fill-opacity:1;stroke:none;stroke-width:0.0701546"
       id="rect6781"
       width="5.9449697"
       height="1.9816521"
       x="-981.4751"
       y="-1337.0691"
       transform="rotate(-52.317424)" /><rect
       style="fill:#ffffff;fill-opacity:1;stroke:none;stroke-width:0.0701546"
       id="rect6783"
       width="5.9449697"
       height="1.9816521"
       x="-971.2135"
       y="-1337.0691"
       transform="rotate(-52.317424)" /><rect
       style="fill:#ffffff;fill-opacity:1;stroke:none;stroke-width:0.0701546"
       id="rect6785"
       width="5.9449697"
       height="1.9816521"
       x="1030.5221"
       y="-1286.9988"
       transform="rotate(-127.31742)" /><rect
       style="fill:#ffffff;fill-opacity:1;stroke:none;stroke-width:0.0701546"
       id="rect6787"
       width="5.9449697"
       height="1.9816521"
       x="1040.7836"
       y="-1286.9988"
       transform="rotate(-127.31742)" /></g><g
     id="g6903"
     transform="rotate(180,-772.20433,47.174256)"><path
       id="path6791"
       style="fill:#ff0000;fill-opacity:1;stroke:none;stroke-width:0.611644"
       d="m -1667.9762,-97.714384 v 3.428102 l -3.4218,-8e-6 -5e-4,3.421164 0.1008,0.100795 3.4214,2.84e-4 v 3.421171 l 6e-4,5.61e-4 3.4215,2.85e-4 v 3.421171 l 5e-4,5.61e-4 3.4215,2.85e-4 3e-4,3.421472 0.1005,0.100494 h 3.4212 v 3.421171 l 5e-4,5.61e-4 3.4218,5.77e-4 3e-4,3.421456 5e-4,5.61e-4 3.4154,1.6e-5 0.1063,-0.106296 -10e-5,-3.416524 3.4164,2.69e-4 0.01,-0.0055 2e-4,-3.416801 3.4169,-3e-4 0.01,-0.0055 -3e-4,-3.41567 3.4162,-2.53e-4 0.1057,-0.105734 6e-4,-3.416564 3.4157,3.08e-4 0.01,-0.0063 v -3.41601 l 3.4162,-2.45e-4 0.01,-0.0055 3e-4,-3.416232 -4e-4,-2.92e-4 -3.4217,-8e-6 -5e-4,-3.42231 -0.1,-0.09992 -3.4226,2.61e-4 6e-4,-3.421724 -3.4226,-3.1e-4 6e-4,-3.4223 -3.4221,-3e-4 v -3.42174 l -0.1,-0.0999 -3.422,-2.9e-4 -10e-5,-3.42175 -3.4222,5.5e-4 v 3.42174 l -3.4281,1e-5 -0.094,0.0939 v 3.4281 l -3.4218,-1e-5 -5e-4,3.4223 -3.422,2.7e-4 -1e-4,3.421792 -3.4281,8e-6 z" /><rect
       style="fill:#ffffff;fill-opacity:1;stroke:none;stroke-width:0.0701546"
       id="rect6793"
       width="5.9449697"
       height="1.9816521"
       x="-1660.4709"
       y="-93.566536" /><rect
       style="fill:#ffffff;fill-opacity:1;stroke:none;stroke-width:0.0701546"
       id="rect6795"
       width="5.9449697"
       height="1.9816521"
       x="-1650.2095"
       y="-93.566536" /><rect
       style="fill:#ffffff;fill-opacity:1;stroke:none;stroke-width:0.0701546"
       id="rect6797"
       width="5.9449697"
       height="1.9816521"
       x="-944.9079"
       y="-1365.2806"
       transform="rotate(-52.317424)" /><rect
       style="fill:#ffffff;fill-opacity:1;stroke:none;stroke-width:0.0701546"
       id="rect6799"
       width="5.9449697"
       height="1.9816521"
       x="-934.6463"
       y="-1365.2806"
       transform="rotate(-52.317424)" /><rect
       style="fill:#ffffff;fill-opacity:1;stroke:none;stroke-width:0.0701546"
       id="rect6801"
       width="5.9449697"
       height="1.9816521"
       x="1067.2366"
       y="-1258.9791"
       transform="rotate(-127.31742)" /><rect
       style="fill:#ffffff;fill-opacity:1;stroke:none;stroke-width:0.0701546"
       id="rect6803"
       width="5.9449697"
       height="1.9816521"
       x="1077.498"
       y="-1258.9791"
       transform="rotate(-127.31742)" /><path
       id="path6805"
       style="fill:#ff0000;fill-opacity:1;stroke:none;stroke-width:0.611644"
       d="m -1667.9762,-97.714384 v 3.428102 l -3.4218,-8e-6 -5e-4,3.421164 0.1008,0.100795 3.4214,2.84e-4 v 3.421171 l 6e-4,5.61e-4 3.4215,2.85e-4 v 3.421171 l 5e-4,5.61e-4 3.4215,2.85e-4 3e-4,3.421472 0.1005,0.100494 h 3.4212 v 3.421171 l 5e-4,5.61e-4 3.4218,5.77e-4 3e-4,3.421456 5e-4,5.61e-4 3.4154,1.6e-5 0.1063,-0.106296 -10e-5,-3.416524 3.4164,2.69e-4 0.01,-0.0055 2e-4,-3.416801 3.4169,-3e-4 0.01,-0.0055 -3e-4,-3.41567 3.4162,-2.53e-4 0.1057,-0.105734 6e-4,-3.416564 3.4157,3.08e-4 0.01,-0.0063 v -3.41601 l 3.4162,-2.45e-4 0.01,-0.0055 3e-4,-3.416232 -4e-4,-2.92e-4 -3.4217,-8e-6 -5e-4,-3.42231 -0.1,-0.09992 -3.4226,2.61e-4 6e-4,-3.421724 -3.4226,-3.1e-4 6e-4,-3.4223 -3.4221,-3e-4 v -3.42174 l -0.1,-0.0999 -3.422,-2.9e-4 -10e-5,-3.42175 -3.4222,5.5e-4 v 3.42174 l -3.4281,1e-5 -0.094,0.0939 v 3.4281 l -3.4218,-1e-5 -5e-4,3.4223 -3.422,2.7e-4 -1e-4,3.421792 -3.4281,8e-6 z" /><rect
       style="fill:#ffffff;fill-opacity:1;stroke:none;stroke-width:0.0701546"
       id="rect6807"
       width="5.9449697"
       height="1.9816521"
       x="-1660.4709"
       y="-93.566536" /><rect
       style="fill:#ffffff;fill-opacity:1;stroke:none;stroke-width:0.0701546"
       id="rect6809"
       width="5.9449697"
       height="1.9816521"
       x="-1650.2095"
       y="-93.566536" /><rect
       style="fill:#ffffff;fill-opacity:1;stroke:none;stroke-width:0.0701546"
       id="rect6811"
       width="5.9449697"
       height="1.9816521"
       x="-944.9079"
       y="-1365.2806"
       transform="rotate(-52.317424)" /><rect
       style="fill:#ffffff;fill-opacity:1;stroke:none;stroke-width:0.0701546"
       id="rect6813"
       width="5.9449697"
       height="1.9816521"
       x="-934.6463"
       y="-1365.2806"
       transform="rotate(-52.317424)" /><rect
       style="fill:#ffffff;fill-opacity:1;stroke:none;stroke-width:0.0701546"
       id="rect6815"
       width="5.9449697"
       height="1.9816521"
       x="1067.2366"
       y="-1258.9791"
       transform="rotate(-127.31742)" /><rect
       style="fill:#ffffff;fill-opacity:1;stroke:none;stroke-width:0.0701546"
       id="rect6817"
       width="5.9449697"
       height="1.9816521"
       x="1077.498"
       y="-1258.9791"
       transform="rotate(-127.31742)" /><path
       id="path6819"
       style="fill:#ff0000;fill-opacity:1;stroke:none;stroke-width:0.611644"
       d="m -1690.1433,-74.631763 v 3.428102 l -3.4218,-8e-6 -5e-4,3.421164 0.1008,0.100795 3.4214,2.84e-4 v 3.421171 l 6e-4,5.61e-4 3.4215,2.85e-4 v 3.421171 l 5e-4,5.61e-4 3.4215,2.85e-4 3e-4,3.421472 0.1005,0.100494 h 3.4212 v 3.421171 l 5e-4,5.61e-4 3.4218,5.77e-4 3e-4,3.421456 5e-4,5.61e-4 3.4154,1.6e-5 0.1063,-0.106296 -10e-5,-3.416524 3.4164,2.69e-4 0.01,-0.0055 2e-4,-3.416801 3.4169,-3e-4 0.01,-0.0055 -3e-4,-3.41567 3.4162,-2.53e-4 0.1057,-0.105734 6e-4,-3.416564 3.4157,3.08e-4 0.01,-0.0063 v -3.41601 l 3.4162,-2.45e-4 0.01,-0.0055 3e-4,-3.416232 -4e-4,-2.92e-4 -3.4217,-8e-6 -5e-4,-3.42231 -0.1,-0.09992 -3.4226,2.61e-4 6e-4,-3.421724 -3.4226,-3.1e-4 6e-4,-3.4223 -3.4221,-3e-4 v -3.42174 l -0.1,-0.0999 -3.422,-2.9e-4 -10e-5,-3.42175 -3.4222,5.5e-4 v 3.42174 l -3.4281,1e-5 -0.094,0.0939 v 3.4281 l -3.4218,-1e-5 -5e-4,3.4223 -3.422,2.7e-4 -10e-5,3.421792 -3.4281,8e-6 z" /><rect
       style="fill:#ffffff;fill-opacity:1;stroke:none;stroke-width:0.0701546"
       id="rect6821"
       width="5.9449697"
       height="1.9816521"
       x="-1682.6381"
       y="-70.483917" /><rect
       style="fill:#ffffff;fill-opacity:1;stroke:none;stroke-width:0.0701546"
       id="rect6823"
       width="5.9449697"
       height="1.9816521"
       x="-1672.3766"
       y="-70.483917" /><rect
       style="fill:#ffffff;fill-opacity:1;stroke:none;stroke-width:0.0701546"
       id="rect6825"
       width="5.9449697"
       height="1.9816521"
       x="-976.72614"
       y="-1368.7137"
       transform="rotate(-52.317424)" /><rect
       style="fill:#ffffff;fill-opacity:1;stroke:none;stroke-width:0.0701546"
       id="rect6827"
       width="5.9449697"
       height="1.9816521"
       x="-966.46454"
       y="-1368.7137"
       transform="rotate(-52.317424)" /><rect
       style="fill:#ffffff;fill-opacity:1;stroke:none;stroke-width:0.0701546"
       id="rect6829"
       width="5.9449697"
       height="1.9816521"
       x="1062.3176"
       y="-1290.6018"
       transform="rotate(-127.31742)" /><rect
       style="fill:#ffffff;fill-opacity:1;stroke:none;stroke-width:0.0701546"
       id="rect6831"
       width="5.9449697"
       height="1.9816521"
       x="1072.5791"
       y="-1290.6018"
       transform="rotate(-127.31742)" /><path
       id="path6833"
       style="fill:#ff0000;fill-opacity:1;stroke:none;stroke-width:0.611644"
       d="m -1690.1433,-74.631763 v 3.428102 l -3.4218,-8e-6 -5e-4,3.421164 0.1008,0.100795 3.4214,2.84e-4 v 3.421171 l 6e-4,5.61e-4 3.4215,2.85e-4 v 3.421171 l 5e-4,5.61e-4 3.4215,2.85e-4 3e-4,3.421472 0.1005,0.100494 h 3.4212 v 3.421171 l 5e-4,5.61e-4 3.4218,5.77e-4 3e-4,3.421456 5e-4,5.61e-4 3.4154,1.6e-5 0.1063,-0.106296 -10e-5,-3.416524 3.4164,2.69e-4 0.01,-0.0055 2e-4,-3.416801 3.4169,-3e-4 0.01,-0.0055 -3e-4,-3.41567 3.4162,-2.53e-4 0.1057,-0.105734 6e-4,-3.416564 3.4157,3.08e-4 0.01,-0.0063 v -3.41601 l 3.4162,-2.45e-4 0.01,-0.0055 3e-4,-3.416232 -4e-4,-2.92e-4 -3.4217,-8e-6 -5e-4,-3.42231 -0.1,-0.09992 -3.4226,2.61e-4 6e-4,-3.421724 -3.4226,-3.1e-4 6e-4,-3.4223 -3.4221,-3e-4 v -3.42174 l -0.1,-0.0999 -3.422,-2.9e-4 -10e-5,-3.42175 -3.4222,5.5e-4 v 3.42174 l -3.4281,1e-5 -0.094,0.0939 v 3.4281 l -3.4218,-1e-5 -5e-4,3.4223 -3.422,2.7e-4 -10e-5,3.421792 -3.4281,8e-6 z" /><rect
       style="fill:#ffffff;fill-opacity:1;stroke:none;stroke-width:0.0701546"
       id="rect6835"
       width="5.9449697"
       height="1.9816521"
       x="-1682.6381"
       y="-70.483917" /><rect
       style="fill:#ffffff;fill-opacity:1;stroke:none;stroke-width:0.0701546"
       id="rect6837"
       width="5.9449697"
       height="1.9816521"
       x="-1672.3766"
       y="-70.483917" /><rect
       style="fill:#ffffff;fill-opacity:1;stroke:none;stroke-width:0.0701546"
       id="rect6839"
       width="5.9449697"
       height="1.9816521"
       x="-976.72614"
       y="-1368.7137"
       transform="rotate(-52.317424)" /><rect
       style="fill:#ffffff;fill-opacity:1;stroke:none;stroke-width:0.0701546"
       id="rect6841"
       width="5.9449697"
       height="1.9816521"
       x="-966.46454"
       y="-1368.7137"
       transform="rotate(-52.317424)" /><rect
       style="fill:#ffffff;fill-opacity:1;stroke:none;stroke-width:0.0701546"
       id="rect6843"
       width="5.9449697"
       height="1.9816521"
       x="1062.3176"
       y="-1290.6018"
       transform="rotate(-127.31742)" /><rect
       style="fill:#ffffff;fill-opacity:1;stroke:none;stroke-width:0.0701546"
       id="rect6845"
       width="5.9449697"
       height="1.9816521"
       x="1072.5791"
       y="-1290.6018"
       transform="rotate(-127.31742)" /><path
       id="path6847"
       style="fill:#ff0000;fill-opacity:1;stroke:none;stroke-width:0.611644"
       d="m -1645.8353,-74.612061 v 3.428102 l -3.4218,-8e-6 -5e-4,3.421164 0.1008,0.100795 3.4214,2.84e-4 v 3.421171 l 6e-4,5.61e-4 3.4215,2.85e-4 v 3.421171 l 5e-4,5.61e-4 3.4215,2.85e-4 3e-4,3.421472 0.1005,0.100494 h 3.4212 v 3.421171 l 5e-4,5.61e-4 3.4218,5.77e-4 3e-4,3.421456 5e-4,5.61e-4 3.4154,1.6e-5 0.1063,-0.106296 -10e-5,-3.416524 3.4164,2.69e-4 0.01,-0.0055 2e-4,-3.416801 3.4169,-3e-4 0.01,-0.0055 -3e-4,-3.41567 3.4162,-2.53e-4 0.1057,-0.105734 6e-4,-3.416564 3.4157,3.08e-4 0.01,-0.0063 v -3.41601 l 3.4162,-2.45e-4 0.01,-0.0055 3e-4,-3.416232 -4e-4,-2.92e-4 -3.4217,-8e-6 -5e-4,-3.42231 -0.1,-0.09992 -3.4226,2.61e-4 6e-4,-3.421724 -3.4226,-3.1e-4 6e-4,-3.4223 -3.4221,-3e-4 v -3.42174 l -0.1,-0.0999 -3.422,-2.9e-4 -10e-5,-3.42175 -3.4222,5.5e-4 v 3.42174 l -3.4281,10e-6 -0.094,0.0939 v 3.4281 l -3.4218,-1e-5 -5e-4,3.4223 -3.422,2.7e-4 -10e-5,3.421792 -3.4281,8e-6 z" /><rect
       style="fill:#ffffff;fill-opacity:1;stroke:none;stroke-width:0.0701546"
       id="rect6849"
       width="5.9449697"
       height="1.9816521"
       x="-1638.3301"
       y="-70.464218" /><rect
       style="fill:#ffffff;fill-opacity:1;stroke:none;stroke-width:0.0701546"
       id="rect6851"
       width="5.9449697"
       height="1.9816521"
       x="-1628.0686"
       y="-70.464218" /><rect
       style="fill:#ffffff;fill-opacity:1;stroke:none;stroke-width:0.0701546"
       id="rect6853"
       width="5.9449697"
       height="1.9816521"
       x="-949.65686"
       y="-1333.636"
       transform="rotate(-52.317424)" /><rect
       style="fill:#ffffff;fill-opacity:1;stroke:none;stroke-width:0.0701546"
       id="rect6855"
       width="5.9449697"
       height="1.9816521"
       x="-939.39526"
       y="-1333.636"
       transform="rotate(-52.317424)" /><rect
       style="fill:#ffffff;fill-opacity:1;stroke:none;stroke-width:0.0701546"
       id="rect6857"
       width="5.9449697"
       height="1.9816521"
       x="1035.4412"
       y="-1255.3761"
       transform="rotate(-127.31742)" /><rect
       style="fill:#ffffff;fill-opacity:1;stroke:none;stroke-width:0.0701546"
       id="rect6859"
       width="5.9449697"
       height="1.9816521"
       x="1045.7026"
       y="-1255.3761"
       transform="rotate(-127.31742)" /><path
       id="path6861"
       style="fill:#ff0000;fill-opacity:1;stroke:none;stroke-width:0.611644"
       d="m -1645.8353,-74.612061 v 3.428102 l -3.4218,-8e-6 -5e-4,3.421164 0.1008,0.100795 3.4214,2.84e-4 v 3.421171 l 6e-4,5.61e-4 3.4215,2.85e-4 v 3.421171 l 5e-4,5.61e-4 3.4215,2.85e-4 3e-4,3.421472 0.1005,0.100494 h 3.4212 v 3.421171 l 5e-4,5.61e-4 3.4218,5.77e-4 3e-4,3.421456 5e-4,5.61e-4 3.4154,1.6e-5 0.1063,-0.106296 -10e-5,-3.416524 3.4164,2.69e-4 0.01,-0.0055 2e-4,-3.416801 3.4169,-3e-4 0.01,-0.0055 -3e-4,-3.41567 3.4162,-2.53e-4 0.1057,-0.105734 6e-4,-3.416564 3.4157,3.08e-4 0.01,-0.0063 v -3.41601 l 3.4162,-2.45e-4 0.01,-0.0055 3e-4,-3.416232 -4e-4,-2.92e-4 -3.4217,-8e-6 -5e-4,-3.42231 -0.1,-0.09992 -3.4226,2.61e-4 6e-4,-3.421724 -3.4226,-3.1e-4 6e-4,-3.4223 -3.4221,-3e-4 v -3.42174 l -0.1,-0.0999 -3.422,-2.9e-4 -10e-5,-3.42175 -3.4222,5.5e-4 v 3.42174 l -3.4281,10e-6 -0.094,0.0939 v 3.4281 l -3.4218,-1e-5 -5e-4,3.4223 -3.422,2.7e-4 -10e-5,3.421792 -3.4281,8e-6 z" /><rect
       style="fill:#ffffff;fill-opacity:1;stroke:none;stroke-width:0.0701546"
       id="rect6863"
       width="5.9449697"
       height="1.9816521"
       x="-1638.3301"
       y="-70.464218" /><rect
       style="fill:#ffffff;fill-opacity:1;stroke:none;stroke-width:0.0701546"
       id="rect6865"
       width="5.9449697"
       height="1.9816521"
       x="-1628.0686"
       y="-70.464218" /><rect
       style="fill:#ffffff;fill-opacity:1;stroke:none;stroke-width:0.0701546"
       id="rect6867"
       width="5.9449697"
       height="1.9816521"
       x="-949.65686"
       y="-1333.636"
       transform="rotate(-52.317424)" /><rect
       style="fill:#ffffff;fill-opacity:1;stroke:none;stroke-width:0.0701546"
       id="rect6869"
       width="5.9449697"
       height="1.9816521"
       x="-939.39526"
       y="-1333.636"
       transform="rotate(-52.317424)" /><rect
       style="fill:#ffffff;fill-opacity:1;stroke:none;stroke-width:0.0701546"
       id="rect6871"
       width="5.9449697"
       height="1.9816521"
       x="1035.4412"
       y="-1255.3761"
       transform="rotate(-127.31742)" /><rect
       style="fill:#ffffff;fill-opacity:1;stroke:none;stroke-width:0.0701546"
       id="rect6873"
       width="5.9449697"
       height="1.9816521"
       x="1045.7026"
       y="-1255.3761"
       transform="rotate(-127.31742)" /><path
       id="path6875"
       style="fill:#ff0000;fill-opacity:1;stroke:none;stroke-width:0.611644"
       d="m -1668.0024,-51.529411 v 3.428102 l -3.4218,-8e-6 -5e-4,3.421164 0.1008,0.100795 3.4214,2.84e-4 v 3.421171 l 6e-4,5.61e-4 3.4215,2.85e-4 v 3.421171 l 5e-4,5.61e-4 3.4215,2.85e-4 3e-4,3.421472 0.1005,0.100494 h 3.4212 v 3.421171 l 5e-4,5.61e-4 3.4218,5.77e-4 3e-4,3.421456 5e-4,5.61e-4 3.4154,1.6e-5 0.1063,-0.106296 -10e-5,-3.416524 3.4164,2.69e-4 0.01,-0.0055 2e-4,-3.416801 3.4169,-3e-4 0.01,-0.0055 -3e-4,-3.41567 3.4162,-2.53e-4 0.1057,-0.105734 6e-4,-3.416564 3.4157,3.08e-4 0.01,-0.0063 v -3.41601 l 3.4162,-2.45e-4 0.01,-0.0055 3e-4,-3.416232 -4e-4,-2.92e-4 -3.4217,-8e-6 -5e-4,-3.42231 -0.1,-0.09992 -3.4226,2.61e-4 6e-4,-3.421724 -3.4226,-3.1e-4 6e-4,-3.4223 -3.4221,-3e-4 v -3.42174 l -0.1,-0.0999 -3.422,-2.9e-4 -10e-5,-3.42175 -3.4222,5.5e-4 v 3.42174 l -3.4281,1e-5 -0.094,0.0939 v 3.4281 l -3.4218,-1e-5 -5e-4,3.4223 -3.422,2.7e-4 -10e-5,3.421792 -3.4281,8e-6 z" /><rect
       style="fill:#ffffff;fill-opacity:1;stroke:none;stroke-width:0.0701546"
       id="rect6877"
       width="5.9449697"
       height="1.9816521"
       x="-1660.4972"
       y="-47.381569" /><rect
       style="fill:#ffffff;fill-opacity:1;stroke:none;stroke-width:0.0701546"
       id="rect6879"
       width="5.9449697"
       height="1.9816521"
       x="-1650.2357"
       y="-47.381569" /><rect
       style="fill:#ffffff;fill-opacity:1;stroke:none;stroke-width:0.0701546"
       id="rect6881"
       width="5.9449697"
       height="1.9816521"
       x="-981.4751"
       y="-1337.0691"
       transform="rotate(-52.317424)" /><rect
       style="fill:#ffffff;fill-opacity:1;stroke:none;stroke-width:0.0701546"
       id="rect6883"
       width="5.9449697"
       height="1.9816521"
       x="-971.2135"
       y="-1337.0691"
       transform="rotate(-52.317424)" /><rect
       style="fill:#ffffff;fill-opacity:1;stroke:none;stroke-width:0.0701546"
       id="rect6885"
       width="5.9449697"
       height="1.9816521"
       x="1030.5221"
       y="-1286.9988"
       transform="rotate(-127.31742)" /><rect
       style="fill:#ffffff;fill-opacity:1;stroke:none;stroke-width:0.0701546"
       id="rect6887"
       width="5.9449697"
       height="1.9816521"
       x="1040.7836"
       y="-1286.9988"
       transform="rotate(-127.31742)" /><path
       id="path6889"
       style="fill:#ff0000;fill-opacity:1;stroke:none;stroke-width:0.611644"
       d="m -1668.0024,-51.529411 v 3.428102 l -3.4218,-8e-6 -5e-4,3.421164 0.1008,0.100795 3.4214,2.84e-4 v 3.421171 l 6e-4,5.61e-4 3.4215,2.85e-4 v 3.421171 l 5e-4,5.61e-4 3.4215,2.85e-4 3e-4,3.421472 0.1005,0.100494 h 3.4212 v 3.421171 l 5e-4,5.61e-4 3.4218,5.77e-4 3e-4,3.421456 5e-4,5.61e-4 3.4154,1.6e-5 0.1063,-0.106296 -10e-5,-3.416524 3.4164,2.69e-4 0.01,-0.0055 2e-4,-3.416801 3.4169,-3e-4 0.01,-0.0055 -3e-4,-3.41567 3.4162,-2.53e-4 0.1057,-0.105734 6e-4,-3.416564 3.4157,3.08e-4 0.01,-0.0063 v -3.41601 l 3.4162,-2.45e-4 0.01,-0.0055 3e-4,-3.416232 -4e-4,-2.92e-4 -3.4217,-8e-6 -5e-4,-3.42231 -0.1,-0.09992 -3.4226,2.61e-4 6e-4,-3.421724 -3.4226,-3.1e-4 6e-4,-3.4223 -3.4221,-3e-4 v -3.42174 l -0.1,-0.0999 -3.422,-2.9e-4 -10e-5,-3.42175 -3.4222,5.5e-4 v 3.42174 l -3.4281,1e-5 -0.094,0.0939 v 3.4281 l -3.4218,-1e-5 -5e-4,3.4223 -3.422,2.7e-4 -10e-5,3.421792 -3.4281,8e-6 z" /><rect
       style="fill:#ffffff;fill-opacity:1;stroke:none;stroke-width:0.0701546"
       id="rect6891"
       width="5.9449697"
       height="1.9816521"
       x="-1660.4972"
       y="-47.381569" /><rect
       style="fill:#ffffff;fill-opacity:1;stroke:none;stroke-width:0.0701546"
       id="rect6893"
       width="5.9449697"
       height="1.9816521"
       x="-1650.2357"
       y="-47.381569" /><rect
       style="fill:#ffffff;fill-opacity:1;stroke:none;stroke-width:0.0701546"
       id="rect6895"
       width="5.9449697"
       height="1.9816521"
       x="-981.4751"
       y="-1337.0691"
       transform="rotate(-52.317424)" /><rect
       style="fill:#ffffff;fill-opacity:1;stroke:none;stroke-width:0.0701546"
       id="rect6897"
       width="5.9449697"
       height="1.9816521"
       x="-971.2135"
       y="-1337.0691"
       transform="rotate(-52.317424)" /><rect
       style="fill:#ffffff;fill-opacity:1;stroke:none;stroke-width:0.0701546"
       id="rect6899"
       width="5.9449697"
       height="1.9816521"
       x="1030.5221"
       y="-1286.9988"
       transform="rotate(-127.31742)" /><rect
       style="fill:#ffffff;fill-opacity:1;stroke:none;stroke-width:0.0701546"
       id="rect6901"
       width="5.9449697"
       height="1.9816521"
       x="1040.7836"
       y="-1286.9988"
       transform="rotate(-127.31742)" /></g><g
     id="g7017"
     transform="rotate(90,-833.00265,927.35107)"><path
       id="path6905"
       style="fill:#ff0000;fill-opacity:1;stroke:none;stroke-width:0.611644"
       d="m -1667.9762,-97.714384 v 3.428102 l -3.4218,-8e-6 -5e-4,3.421164 0.1008,0.100795 3.4214,2.84e-4 v 3.421171 l 6e-4,5.61e-4 3.4215,2.85e-4 v 3.421171 l 5e-4,5.61e-4 3.4215,2.85e-4 3e-4,3.421472 0.1005,0.100494 h 3.4212 v 3.421171 l 5e-4,5.61e-4 3.4218,5.77e-4 3e-4,3.421456 5e-4,5.61e-4 3.4154,1.6e-5 0.1063,-0.106296 -10e-5,-3.416524 3.4164,2.69e-4 0.01,-0.0055 2e-4,-3.416801 3.4169,-3e-4 0.01,-0.0055 -3e-4,-3.41567 3.4162,-2.53e-4 0.1057,-0.105734 6e-4,-3.416564 3.4157,3.08e-4 0.01,-0.0063 v -3.41601 l 3.4162,-2.45e-4 0.01,-0.0055 3e-4,-3.416232 -4e-4,-2.92e-4 -3.4217,-8e-6 -5e-4,-3.42231 -0.1,-0.09992 -3.4226,2.61e-4 6e-4,-3.421724 -3.4226,-3.1e-4 6e-4,-3.4223 -3.4221,-3e-4 v -3.42174 l -0.1,-0.0999 -3.422,-2.9e-4 -10e-5,-3.42175 -3.4222,5.5e-4 v 3.42174 l -3.4281,1e-5 -0.094,0.0939 v 3.4281 l -3.4218,-1e-5 -5e-4,3.4223 -3.422,2.7e-4 -1e-4,3.421792 -3.4281,8e-6 z" /><rect
       style="fill:#ffffff;fill-opacity:1;stroke:none;stroke-width:0.0701546"
       id="rect6907"
       width="5.9449697"
       height="1.9816521"
       x="-1660.4709"
       y="-93.566536" /><rect
       style="fill:#ffffff;fill-opacity:1;stroke:none;stroke-width:0.0701546"
       id="rect6909"
       width="5.9449697"
       height="1.9816521"
       x="-1650.2095"
       y="-93.566536" /><rect
       style="fill:#ffffff;fill-opacity:1;stroke:none;stroke-width:0.0701546"
       id="rect6911"
       width="5.9449697"
       height="1.9816521"
       x="-944.9079"
       y="-1365.2806"
       transform="rotate(-52.317424)" /><rect
       style="fill:#ffffff;fill-opacity:1;stroke:none;stroke-width:0.0701546"
       id="rect6913"
       width="5.9449697"
       height="1.9816521"
       x="-934.6463"
       y="-1365.2806"
       transform="rotate(-52.317424)" /><rect
       style="fill:#ffffff;fill-opacity:1;stroke:none;stroke-width:0.0701546"
       id="rect6915"
       width="5.9449697"
       height="1.9816521"
       x="1067.2366"
       y="-1258.9791"
       transform="rotate(-127.31742)" /><rect
       style="fill:#ffffff;fill-opacity:1;stroke:none;stroke-width:0.0701546"
       id="rect6917"
       width="5.9449697"
       height="1.9816521"
       x="1077.498"
       y="-1258.9791"
       transform="rotate(-127.31742)" /><path
       id="path6919"
       style="fill:#ff0000;fill-opacity:1;stroke:none;stroke-width:0.611644"
       d="m -1667.9762,-97.714384 v 3.428102 l -3.4218,-8e-6 -5e-4,3.421164 0.1008,0.100795 3.4214,2.84e-4 v 3.421171 l 6e-4,5.61e-4 3.4215,2.85e-4 v 3.421171 l 5e-4,5.61e-4 3.4215,2.85e-4 3e-4,3.421472 0.1005,0.100494 h 3.4212 v 3.421171 l 5e-4,5.61e-4 3.4218,5.77e-4 3e-4,3.421456 5e-4,5.61e-4 3.4154,1.6e-5 0.1063,-0.106296 -10e-5,-3.416524 3.4164,2.69e-4 0.01,-0.0055 2e-4,-3.416801 3.4169,-3e-4 0.01,-0.0055 -3e-4,-3.41567 3.4162,-2.53e-4 0.1057,-0.105734 6e-4,-3.416564 3.4157,3.08e-4 0.01,-0.0063 v -3.41601 l 3.4162,-2.45e-4 0.01,-0.0055 3e-4,-3.416232 -4e-4,-2.92e-4 -3.4217,-8e-6 -5e-4,-3.42231 -0.1,-0.09992 -3.4226,2.61e-4 6e-4,-3.421724 -3.4226,-3.1e-4 6e-4,-3.4223 -3.4221,-3e-4 v -3.42174 l -0.1,-0.0999 -3.422,-2.9e-4 -10e-5,-3.42175 -3.4222,5.5e-4 v 3.42174 l -3.4281,1e-5 -0.094,0.0939 v 3.4281 l -3.4218,-1e-5 -5e-4,3.4223 -3.422,2.7e-4 -1e-4,3.421792 -3.4281,8e-6 z" /><rect
       style="fill:#ffffff;fill-opacity:1;stroke:none;stroke-width:0.0701546"
       id="rect6921"
       width="5.9449697"
       height="1.9816521"
       x="-1660.4709"
       y="-93.566536" /><rect
       style="fill:#ffffff;fill-opacity:1;stroke:none;stroke-width:0.0701546"
       id="rect6923"
       width="5.9449697"
       height="1.9816521"
       x="-1650.2095"
       y="-93.566536" /><rect
       style="fill:#ffffff;fill-opacity:1;stroke:none;stroke-width:0.0701546"
       id="rect6925"
       width="5.9449697"
       height="1.9816521"
       x="-944.9079"
       y="-1365.2806"
       transform="rotate(-52.317424)" /><rect
       style="fill:#ffffff;fill-opacity:1;stroke:none;stroke-width:0.0701546"
       id="rect6927"
       width="5.9449697"
       height="1.9816521"
       x="-934.6463"
       y="-1365.2806"
       transform="rotate(-52.317424)" /><rect
       style="fill:#ffffff;fill-opacity:1;stroke:none;stroke-width:0.0701546"
       id="rect6929"
       width="5.9449697"
       height="1.9816521"
       x="1067.2366"
       y="-1258.9791"
       transform="rotate(-127.31742)" /><rect
       style="fill:#ffffff;fill-opacity:1;stroke:none;stroke-width:0.0701546"
       id="rect6931"
       width="5.9449697"
       height="1.9816521"
       x="1077.498"
       y="-1258.9791"
       transform="rotate(-127.31742)" /><path
       id="path6933"
       style="fill:#ff0000;fill-opacity:1;stroke:none;stroke-width:0.611644"
       d="m -1690.1433,-74.631763 v 3.428102 l -3.4218,-8e-6 -5e-4,3.421164 0.1008,0.100795 3.4214,2.84e-4 v 3.421171 l 6e-4,5.61e-4 3.4215,2.85e-4 v 3.421171 l 5e-4,5.61e-4 3.4215,2.85e-4 3e-4,3.421472 0.1005,0.100494 h 3.4212 v 3.421171 l 5e-4,5.61e-4 3.4218,5.77e-4 3e-4,3.421456 5e-4,5.61e-4 3.4154,1.6e-5 0.1063,-0.106296 -10e-5,-3.416524 3.4164,2.69e-4 0.01,-0.0055 2e-4,-3.416801 3.4169,-3e-4 0.01,-0.0055 -3e-4,-3.41567 3.4162,-2.53e-4 0.1057,-0.105734 6e-4,-3.416564 3.4157,3.08e-4 0.01,-0.0063 v -3.41601 l 3.4162,-2.45e-4 0.01,-0.0055 3e-4,-3.416232 -4e-4,-2.92e-4 -3.4217,-8e-6 -5e-4,-3.42231 -0.1,-0.09992 -3.4226,2.61e-4 6e-4,-3.421724 -3.4226,-3.1e-4 6e-4,-3.4223 -3.4221,-3e-4 v -3.42174 l -0.1,-0.0999 -3.422,-2.9e-4 -10e-5,-3.42175 -3.4222,5.5e-4 v 3.42174 l -3.4281,1e-5 -0.094,0.0939 v 3.4281 l -3.4218,-1e-5 -5e-4,3.4223 -3.422,2.7e-4 -10e-5,3.421792 -3.4281,8e-6 z" /><rect
       style="fill:#ffffff;fill-opacity:1;stroke:none;stroke-width:0.0701546"
       id="rect6935"
       width="5.9449697"
       height="1.9816521"
       x="-1682.6381"
       y="-70.483917" /><rect
       style="fill:#ffffff;fill-opacity:1;stroke:none;stroke-width:0.0701546"
       id="rect6937"
       width="5.9449697"
       height="1.9816521"
       x="-1672.3766"
       y="-70.483917" /><rect
       style="fill:#ffffff;fill-opacity:1;stroke:none;stroke-width:0.0701546"
       id="rect6939"
       width="5.9449697"
       height="1.9816521"
       x="-976.72614"
       y="-1368.7137"
       transform="rotate(-52.317424)" /><rect
       style="fill:#ffffff;fill-opacity:1;stroke:none;stroke-width:0.0701546"
       id="rect6941"
       width="5.9449697"
       height="1.9816521"
       x="-966.46454"
       y="-1368.7137"
       transform="rotate(-52.317424)" /><rect
       style="fill:#ffffff;fill-opacity:1;stroke:none;stroke-width:0.0701546"
       id="rect6943"
       width="5.9449697"
       height="1.9816521"
       x="1062.3176"
       y="-1290.6018"
       transform="rotate(-127.31742)" /><rect
       style="fill:#ffffff;fill-opacity:1;stroke:none;stroke-width:0.0701546"
       id="rect6945"
       width="5.9449697"
       height="1.9816521"
       x="1072.5791"
       y="-1290.6018"
       transform="rotate(-127.31742)" /><path
       id="path6947"
       style="fill:#ff0000;fill-opacity:1;stroke:none;stroke-width:0.611644"
       d="m -1690.1433,-74.631763 v 3.428102 l -3.4218,-8e-6 -5e-4,3.421164 0.1008,0.100795 3.4214,2.84e-4 v 3.421171 l 6e-4,5.61e-4 3.4215,2.85e-4 v 3.421171 l 5e-4,5.61e-4 3.4215,2.85e-4 3e-4,3.421472 0.1005,0.100494 h 3.4212 v 3.421171 l 5e-4,5.61e-4 3.4218,5.77e-4 3e-4,3.421456 5e-4,5.61e-4 3.4154,1.6e-5 0.1063,-0.106296 -10e-5,-3.416524 3.4164,2.69e-4 0.01,-0.0055 2e-4,-3.416801 3.4169,-3e-4 0.01,-0.0055 -3e-4,-3.41567 3.4162,-2.53e-4 0.1057,-0.105734 6e-4,-3.416564 3.4157,3.08e-4 0.01,-0.0063 v -3.41601 l 3.4162,-2.45e-4 0.01,-0.0055 3e-4,-3.416232 -4e-4,-2.92e-4 -3.4217,-8e-6 -5e-4,-3.42231 -0.1,-0.09992 -3.4226,2.61e-4 6e-4,-3.421724 -3.4226,-3.1e-4 6e-4,-3.4223 -3.4221,-3e-4 v -3.42174 l -0.1,-0.0999 -3.422,-2.9e-4 -10e-5,-3.42175 -3.4222,5.5e-4 v 3.42174 l -3.4281,1e-5 -0.094,0.0939 v 3.4281 l -3.4218,-1e-5 -5e-4,3.4223 -3.422,2.7e-4 -10e-5,3.421792 -3.4281,8e-6 z" /><rect
       style="fill:#ffffff;fill-opacity:1;stroke:none;stroke-width:0.0701546"
       id="rect6949"
       width="5.9449697"
       height="1.9816521"
       x="-1682.6381"
       y="-70.483917" /><rect
       style="fill:#ffffff;fill-opacity:1;stroke:none;stroke-width:0.0701546"
       id="rect6951"
       width="5.9449697"
       height="1.9816521"
       x="-1672.3766"
       y="-70.483917" /><rect
       style="fill:#ffffff;fill-opacity:1;stroke:none;stroke-width:0.0701546"
       id="rect6953"
       width="5.9449697"
       height="1.9816521"
       x="-976.72614"
       y="-1368.7137"
       transform="rotate(-52.317424)" /><rect
       style="fill:#ffffff;fill-opacity:1;stroke:none;stroke-width:0.0701546"
       id="rect6955"
       width="5.9449697"
       height="1.9816521"
       x="-966.46454"
       y="-1368.7137"
       transform="rotate(-52.317424)" /><rect
       style="fill:#ffffff;fill-opacity:1;stroke:none;stroke-width:0.0701546"
       id="rect6957"
       width="5.9449697"
       height="1.9816521"
       x="1062.3176"
       y="-1290.6018"
       transform="rotate(-127.31742)" /><rect
       style="fill:#ffffff;fill-opacity:1;stroke:none;stroke-width:0.0701546"
       id="rect6959"
       width="5.9449697"
       height="1.9816521"
       x="1072.5791"
       y="-1290.6018"
       transform="rotate(-127.31742)" /><path
       id="path6961"
       style="fill:#ff0000;fill-opacity:1;stroke:none;stroke-width:0.611644"
       d="m -1645.8353,-74.612061 v 3.428102 l -3.4218,-8e-6 -5e-4,3.421164 0.1008,0.100795 3.4214,2.84e-4 v 3.421171 l 6e-4,5.61e-4 3.4215,2.85e-4 v 3.421171 l 5e-4,5.61e-4 3.4215,2.85e-4 3e-4,3.421472 0.1005,0.100494 h 3.4212 v 3.421171 l 5e-4,5.61e-4 3.4218,5.77e-4 3e-4,3.421456 5e-4,5.61e-4 3.4154,1.6e-5 0.1063,-0.106296 -10e-5,-3.416524 3.4164,2.69e-4 0.01,-0.0055 2e-4,-3.416801 3.4169,-3e-4 0.01,-0.0055 -3e-4,-3.41567 3.4162,-2.53e-4 0.1057,-0.105734 6e-4,-3.416564 3.4157,3.08e-4 0.01,-0.0063 v -3.41601 l 3.4162,-2.45e-4 0.01,-0.0055 3e-4,-3.416232 -4e-4,-2.92e-4 -3.4217,-8e-6 -5e-4,-3.42231 -0.1,-0.09992 -3.4226,2.61e-4 6e-4,-3.421724 -3.4226,-3.1e-4 6e-4,-3.4223 -3.4221,-3e-4 v -3.42174 l -0.1,-0.0999 -3.422,-2.9e-4 -10e-5,-3.42175 -3.4222,5.5e-4 v 3.42174 l -3.4281,10e-6 -0.094,0.0939 v 3.4281 l -3.4218,-1e-5 -5e-4,3.4223 -3.422,2.7e-4 -10e-5,3.421792 -3.4281,8e-6 z" /><rect
       style="fill:#ffffff;fill-opacity:1;stroke:none;stroke-width:0.0701546"
       id="rect6963"
       width="5.9449697"
       height="1.9816521"
       x="-1638.3301"
       y="-70.464218" /><rect
       style="fill:#ffffff;fill-opacity:1;stroke:none;stroke-width:0.0701546"
       id="rect6965"
       width="5.9449697"
       height="1.9816521"
       x="-1628.0686"
       y="-70.464218" /><rect
       style="fill:#ffffff;fill-opacity:1;stroke:none;stroke-width:0.0701546"
       id="rect6967"
       width="5.9449697"
       height="1.9816521"
       x="-949.65686"
       y="-1333.636"
       transform="rotate(-52.317424)" /><rect
       style="fill:#ffffff;fill-opacity:1;stroke:none;stroke-width:0.0701546"
       id="rect6969"
       width="5.9449697"
       height="1.9816521"
       x="-939.39526"
       y="-1333.636"
       transform="rotate(-52.317424)" /><rect
       style="fill:#ffffff;fill-opacity:1;stroke:none;stroke-width:0.0701546"
       id="rect6971"
       width="5.9449697"
       height="1.9816521"
       x="1035.4412"
       y="-1255.3761"
       transform="rotate(-127.31742)" /><rect
       style="fill:#ffffff;fill-opacity:1;stroke:none;stroke-width:0.0701546"
       id="rect6973"
       width="5.9449697"
       height="1.9816521"
       x="1045.7026"
       y="-1255.3761"
       transform="rotate(-127.31742)" /><path
       id="path6975"
       style="fill:#ff0000;fill-opacity:1;stroke:none;stroke-width:0.611644"
       d="m -1645.8353,-74.612061 v 3.428102 l -3.4218,-8e-6 -5e-4,3.421164 0.1008,0.100795 3.4214,2.84e-4 v 3.421171 l 6e-4,5.61e-4 3.4215,2.85e-4 v 3.421171 l 5e-4,5.61e-4 3.4215,2.85e-4 3e-4,3.421472 0.1005,0.100494 h 3.4212 v 3.421171 l 5e-4,5.61e-4 3.4218,5.77e-4 3e-4,3.421456 5e-4,5.61e-4 3.4154,1.6e-5 0.1063,-0.106296 -10e-5,-3.416524 3.4164,2.69e-4 0.01,-0.0055 2e-4,-3.416801 3.4169,-3e-4 0.01,-0.0055 -3e-4,-3.41567 3.4162,-2.53e-4 0.1057,-0.105734 6e-4,-3.416564 3.4157,3.08e-4 0.01,-0.0063 v -3.41601 l 3.4162,-2.45e-4 0.01,-0.0055 3e-4,-3.416232 -4e-4,-2.92e-4 -3.4217,-8e-6 -5e-4,-3.42231 -0.1,-0.09992 -3.4226,2.61e-4 6e-4,-3.421724 -3.4226,-3.1e-4 6e-4,-3.4223 -3.4221,-3e-4 v -3.42174 l -0.1,-0.0999 -3.422,-2.9e-4 -10e-5,-3.42175 -3.4222,5.5e-4 v 3.42174 l -3.4281,10e-6 -0.094,0.0939 v 3.4281 l -3.4218,-1e-5 -5e-4,3.4223 -3.422,2.7e-4 -10e-5,3.421792 -3.4281,8e-6 z" /><rect
       style="fill:#ffffff;fill-opacity:1;stroke:none;stroke-width:0.0701546"
       id="rect6977"
       width="5.9449697"
       height="1.9816521"
       x="-1638.3301"
       y="-70.464218" /><rect
       style="fill:#ffffff;fill-opacity:1;stroke:none;stroke-width:0.0701546"
       id="rect6979"
       width="5.9449697"
       height="1.9816521"
       x="-1628.0686"
       y="-70.464218" /><rect
       style="fill:#ffffff;fill-opacity:1;stroke:none;stroke-width:0.0701546"
       id="rect6981"
       width="5.9449697"
       height="1.9816521"
       x="-949.65686"
       y="-1333.636"
       transform="rotate(-52.317424)" /><rect
       style="fill:#ffffff;fill-opacity:1;stroke:none;stroke-width:0.0701546"
       id="rect6983"
       width="5.9449697"
       height="1.9816521"
       x="-939.39526"
       y="-1333.636"
       transform="rotate(-52.317424)" /><rect
       style="fill:#ffffff;fill-opacity:1;stroke:none;stroke-width:0.0701546"
       id="rect6985"
       width="5.9449697"
       height="1.9816521"
       x="1035.4412"
       y="-1255.3761"
       transform="rotate(-127.31742)" /><rect
       style="fill:#ffffff;fill-opacity:1;stroke:none;stroke-width:0.0701546"
       id="rect6987"
       width="5.9449697"
       height="1.9816521"
       x="1045.7026"
       y="-1255.3761"
       transform="rotate(-127.31742)" /><path
       id="path6989"
       style="fill:#ff0000;fill-opacity:1;stroke:none;stroke-width:0.611644"
       d="m -1668.0024,-51.529411 v 3.428102 l -3.4218,-8e-6 -5e-4,3.421164 0.1008,0.100795 3.4214,2.84e-4 v 3.421171 l 6e-4,5.61e-4 3.4215,2.85e-4 v 3.421171 l 5e-4,5.61e-4 3.4215,2.85e-4 3e-4,3.421472 0.1005,0.100494 h 3.4212 v 3.421171 l 5e-4,5.61e-4 3.4218,5.77e-4 3e-4,3.421456 5e-4,5.61e-4 3.4154,1.6e-5 0.1063,-0.106296 -10e-5,-3.416524 3.4164,2.69e-4 0.01,-0.0055 2e-4,-3.416801 3.4169,-3e-4 0.01,-0.0055 -3e-4,-3.41567 3.4162,-2.53e-4 0.1057,-0.105734 6e-4,-3.416564 3.4157,3.08e-4 0.01,-0.0063 v -3.41601 l 3.4162,-2.45e-4 0.01,-0.0055 3e-4,-3.416232 -4e-4,-2.92e-4 -3.4217,-8e-6 -5e-4,-3.42231 -0.1,-0.09992 -3.4226,2.61e-4 6e-4,-3.421724 -3.4226,-3.1e-4 6e-4,-3.4223 -3.4221,-3e-4 v -3.42174 l -0.1,-0.0999 -3.422,-2.9e-4 -10e-5,-3.42175 -3.4222,5.5e-4 v 3.42174 l -3.4281,1e-5 -0.094,0.0939 v 3.4281 l -3.4218,-1e-5 -5e-4,3.4223 -3.422,2.7e-4 -10e-5,3.421792 -3.4281,8e-6 z" /><rect
       style="fill:#ffffff;fill-opacity:1;stroke:none;stroke-width:0.0701546"
       id="rect6991"
       width="5.9449697"
       height="1.9816521"
       x="-1660.4972"
       y="-47.381569" /><rect
       style="fill:#ffffff;fill-opacity:1;stroke:none;stroke-width:0.0701546"
       id="rect6993"
       width="5.9449697"
       height="1.9816521"
       x="-1650.2357"
       y="-47.381569" /><rect
       style="fill:#ffffff;fill-opacity:1;stroke:none;stroke-width:0.0701546"
       id="rect6995"
       width="5.9449697"
       height="1.9816521"
       x="-981.4751"
       y="-1337.0691"
       transform="rotate(-52.317424)" /><rect
       style="fill:#ffffff;fill-opacity:1;stroke:none;stroke-width:0.0701546"
       id="rect6997"
       width="5.9449697"
       height="1.9816521"
       x="-971.2135"
       y="-1337.0691"
       transform="rotate(-52.317424)" /><rect
       style="fill:#ffffff;fill-opacity:1;stroke:none;stroke-width:0.0701546"
       id="rect6999"
       width="5.9449697"
       height="1.9816521"
       x="1030.5221"
       y="-1286.9988"
       transform="rotate(-127.31742)" /><rect
       style="fill:#ffffff;fill-opacity:1;stroke:none;stroke-width:0.0701546"
       id="rect7001"
       width="5.9449697"
       height="1.9816521"
       x="1040.7836"
       y="-1286.9988"
       transform="rotate(-127.31742)" /><path
       id="path7003"
       style="fill:#ff0000;fill-opacity:1;stroke:none;stroke-width:0.611644"
       d="m -1668.0024,-51.529411 v 3.428102 l -3.4218,-8e-6 -5e-4,3.421164 0.1008,0.100795 3.4214,2.84e-4 v 3.421171 l 6e-4,5.61e-4 3.4215,2.85e-4 v 3.421171 l 5e-4,5.61e-4 3.4215,2.85e-4 3e-4,3.421472 0.1005,0.100494 h 3.4212 v 3.421171 l 5e-4,5.61e-4 3.4218,5.77e-4 3e-4,3.421456 5e-4,5.61e-4 3.4154,1.6e-5 0.1063,-0.106296 -10e-5,-3.416524 3.4164,2.69e-4 0.01,-0.0055 2e-4,-3.416801 3.4169,-3e-4 0.01,-0.0055 -3e-4,-3.41567 3.4162,-2.53e-4 0.1057,-0.105734 6e-4,-3.416564 3.4157,3.08e-4 0.01,-0.0063 v -3.41601 l 3.4162,-2.45e-4 0.01,-0.0055 3e-4,-3.416232 -4e-4,-2.92e-4 -3.4217,-8e-6 -5e-4,-3.42231 -0.1,-0.09992 -3.4226,2.61e-4 6e-4,-3.421724 -3.4226,-3.1e-4 6e-4,-3.4223 -3.4221,-3e-4 v -3.42174 l -0.1,-0.0999 -3.422,-2.9e-4 -10e-5,-3.42175 -3.4222,5.5e-4 v 3.42174 l -3.4281,1e-5 -0.094,0.0939 v 3.4281 l -3.4218,-1e-5 -5e-4,3.4223 -3.422,2.7e-4 -10e-5,3.421792 -3.4281,8e-6 z" /><rect
       style="fill:#ffffff;fill-opacity:1;stroke:none;stroke-width:0.0701546"
       id="rect7005"
       width="5.9449697"
       height="1.9816521"
       x="-1660.4972"
       y="-47.381569" /><rect
       style="fill:#ffffff;fill-opacity:1;stroke:none;stroke-width:0.0701546"
       id="rect7007"
       width="5.9449697"
       height="1.9816521"
       x="-1650.2357"
       y="-47.381569" /><rect
       style="fill:#ffffff;fill-opacity:1;stroke:none;stroke-width:0.0701546"
       id="rect7009"
       width="5.9449697"
       height="1.9816521"
       x="-981.4751"
       y="-1337.0691"
       transform="rotate(-52.317424)" /><rect
       style="fill:#ffffff;fill-opacity:1;stroke:none;stroke-width:0.0701546"
       id="rect7011"
       width="5.9449697"
       height="1.9816521"
       x="-971.2135"
       y="-1337.0691"
       transform="rotate(-52.317424)" /><rect
       style="fill:#ffffff;fill-opacity:1;stroke:none;stroke-width:0.0701546"
       id="rect7013"
       width="5.9449697"
       height="1.9816521"
       x="1030.5221"
       y="-1286.9988"
       transform="rotate(-127.31742)" /><rect
       style="fill:#ffffff;fill-opacity:1;stroke:none;stroke-width:0.0701546"
       id="rect7015"
       width="5.9449697"
       height="1.9816521"
       x="1040.7836"
       y="-1286.9988"
       transform="rotate(-127.31742)" /></g></svg>
