<?xml version="1.0" encoding="UTF-8" standalone="no"?>
<!-- Created with Inkscape (http://www.inkscape.org/) -->

<svg
   width="188.13522mm"
   height="188.13522mm"
   viewBox="0 0 188.13522 188.13522"
   version="1.1"
   id="svg5"
   xml:space="preserve"
   xmlns:inkscape="http://www.inkscape.org/namespaces/inkscape"
   xmlns:sodipodi="http://sodipodi.sourceforge.net/DTD/sodipodi-0.dtd"
   xmlns="http://www.w3.org/2000/svg"
   xmlns:svg="http://www.w3.org/2000/svg"><sodipodi:namedview
     id="namedview7"
     pagecolor="#505050"
     bordercolor="#eeeeee"
     borderopacity="1"
     inkscape:showpageshadow="0"
     inkscape:pageopacity="0"
     inkscape:pagecheckerboard="0"
     inkscape:deskcolor="#505050"
     inkscape:document-units="mm"
     showgrid="false" /><defs
     id="defs2" /><g
     id="layer2"
     inkscape:label="Layer 2"
     transform="translate(234.64058,-295.94305)"><g
       id="g4671"
       transform="translate(32.060498,11.978648)"
       inkscape:export-filename="g46711.webp"
       inkscape:export-xdpi="96"
       inkscape:export-ydpi="96"
       inkscape:label="container"><circle
         style="opacity:1;fill:#383347;fill-opacity:1;fill-rule:evenodd;stroke-width:0.648;stroke-dasharray:none"
         id="circle2483"
         cx="-172.63347"
         cy="378.03201"
         r="94.067612"
         inkscape:label="cirleItem" /><path
         style="fill:#6577a7;fill-opacity:1;stroke:#000000;stroke-width:1.365;stroke-linecap:butt;stroke-linejoin:miter;stroke-dasharray:none;stroke-opacity:1"
         d="m -131.14858,340.75289 c 0,0 -3.98316,-1.15212 -13.44984,2.58473 -9.46667,3.73684 -84.70182,36.2474 -84.70182,36.2474 0,0 -6.10352,3.36316 -1.49474,6.72632 4.60877,3.36316 20.55265,6.35263 20.55265,6.35263 0,0 4.73334,1.86843 13.20352,-3.23859 8.47018,-5.10702 34.25441,-22.91932 34.25441,-22.91932 0,0 7.84738,-5.72983 9.093,-3.73685 1.24561,1.99299 -5.10703,7.34913 -5.10703,7.34913 l -27.15441,26.03336 c 0,0 -3.11403,4.35965 1.74387,7.84737 4.8579,3.48773 28.89827,19.4316 28.89827,19.4316 0,0 12.20702,9.46667 15.44562,-1.99299 3.2386,-11.45966 11.3351,-66.51584 11.3351,-66.51584 0,0 3.35754,-13.39052 -2.6186,-14.16895 z"
         id="path2485"
         inkscape:label="mainItem" /></g></g></svg>
